<?xml version="1.0" encoding="UTF-8"?>
<svg id="Layer_1" data-name="Layer 1" xmlns="http://www.w3.org/2000/svg" viewBox="0 0 426.03 89.7">
  <defs>
    <style>
      .cls-1 {
        fill: #fff;
        stroke-width: 0px;
      }
    </style>
  </defs>
  <path class="cls-1" d="m.29,2.73c.59-.1.96-.15,1.12-.15,1.11,0,2.93.06,5.47.2,1.33.03,2.25.05,2.73.05.72,0,2.23-.06,4.54-.2l8.3-.49c2.18-.2,4.72-.29,7.62-.29,5.11,0,9.18.72,12.21,2.17s5.36,3.71,7.01,6.8c1.64,3.09,2.47,6.16,2.47,9.22,0,5.1-1.79,9.51-5.37,13.21-3.58,3.71-8.4,5.56-14.45,5.56-1.69,0-3.11-.17-4.25-.51-1.14-.34-2.44-1-3.91-1.98-.62-.42-.99-.86-1.12-1.32.13-.23.31-.39.54-.49.46,0,.93.1,1.42.29,1.11.39,2.51.59,4.2.59,2.57,0,5-.63,7.3-1.9,2.29-1.27,4.03-3.07,5.2-5.41s1.76-4.81,1.76-7.41-.62-5-1.85-7.38c-1.23-2.39-2.86-4.3-4.87-5.73-1.14-.81-2.88-1.49-5.24-2.05-2.36-.55-4.18-.83-5.48-.83-4.03,0-6.42.29-7.16.88l-.05.68.15,5.51-.05.97c-.07.88-.1,2.23-.1,4.05,0,6.63.1,10.77.29,12.39v2.73l.63,22.3c0,.32-.04.93-.12,1.8-.08.88-.12,1.64-.12,2.29,0,1.56.13,2.75.39,3.56.78.23,3.06.76,6.84,1.61,1.76.42,2.72.67,2.88.73.26.1.49.31.68.63-.13.49-.3.8-.51.95-.21.15-.63.22-1.25.22-.39,0-1.3-.08-2.73-.24-2.8-.29-5-.44-6.59-.44l-8.59.34-5.13-.15c-.33,0-1.27.03-2.83.1l-.05-1.27,6.35-1.22c1.04-.29,1.68-.58,1.9-.88.32-.46.49-1.35.49-2.68,0-.29.02-.93.05-1.9.03-.68.05-1.62.05-2.83,0-3.84-.16-12.02-.49-24.54-.13-5.85-.2-11.81-.2-17.86v-.83c0-2.34-.36-3.82-1.07-4.44-1.2-1.07-4.22-1.95-9.03-2.63-.16-.36-.24-.65-.24-.88,0-.26.1-.57.29-.93Z"/>
  <path class="cls-1" d="m54.15,45.41c0-2.21.46-4.58,1.39-7.11.93-2.52,2.34-4.79,4.22-6.79,1.89-2,3.89-3.49,6.01-4.47,2.96-1.37,6.57-2.05,10.84-2.05,6.09,0,11.17,2.08,15.26,6.25,4.08,4.17,6.13,9.18,6.13,15.04,0,5.21-2.14,9.86-6.42,13.94-4.28,4.09-9.69,6.13-16.24,6.13-4.04,0-7.85-1.06-11.43-3.17-2.67-1.6-4.96-3.96-6.88-7.08-1.92-3.12-2.88-6.69-2.88-10.69Zm21.61,19.04c2.48,0,4.87-.67,7.17-2,2.3-1.33,4.13-3.47,5.5-6.42,1.37-2.95,2.05-6.36,2.05-10.23,0-2.54-.53-5.48-1.59-8.84-1.06-3.35-2.69-5.87-4.89-7.54-2.2-1.68-4.79-2.51-7.75-2.51-2.15,0-4.34.5-6.58,1.51s-4.12,2.95-5.67,5.81c-1.55,2.87-2.32,6.93-2.32,12.21,0,5.92,1.34,10.41,4.04,13.45,2.69,3.04,6.04,4.57,10.05,4.57Z"/>
  <path class="cls-1" d="m104.15,4.54v-1.07c.91-.29,1.92-.6,3.03-.93,1.64-.52,4.06-1.32,7.26-2.39h2.31v2.69c0,26.75-.08,42.69-.24,47.84-.1,3.03-.15,4.64-.15,4.84,0,3.65.15,5.68.44,6.11.39.59,1.59.99,3.59,1.22s3.18.46,3.54.68c.26.13.39.36.39.68,0,.36-.07.61-.22.76s-.42.22-.81.22c-.23,0-1.94-.06-5.13-.17l-6.4-.22-8.2.39c-.52.03-.91-.07-1.17-.3-.2-.17-.29-.4-.29-.7,0-.33.11-.58.32-.73.21-.15,1.38-.4,3.52-.76,2.13-.36,3.35-.66,3.66-.9.31-.24.51-.79.61-1.63.13-1.17.2-4.48.2-9.91l-.05-11.23.15-11.62-.05-11.62.15-5.71c0-1.14-.18-1.96-.54-2.47-.36-.5-1.12-1-2.29-1.49-1.76-.72-2.96-1.24-3.61-1.56Z"/>
  <path class="cls-1" d="m125.1,26.56c.72-.06,1.32-.1,1.81-.1h2.34l3.17-.1,4.15.15,3.37-.1c1.79,0,3.4.11,4.83.34.13.33.2.59.2.78l-.05.39c-.68.33-1.74.55-3.17.68-2.02.16-3.47.52-4.35,1.07l-.1.54c0,.33.13.81.39,1.47.16.39.38.98.64,1.76.72,2.41,2.27,7.08,4.66,13.99,1.73,4.99,3.33,9.28,4.8,12.86.9-1.97,1.92-4.46,3.08-7.48l4.1-11.59c.95-2.53,1.67-5.06,2.16-7.6.2-1.01.29-1.81.29-2.39,0-.49-.21-.94-.63-1.37-.42-.42-1.27-.78-2.54-1.07-2.31-.59-3.56-.95-3.76-1.1s-.31-.46-.34-.95c.2-.16.42-.29.68-.39h3.03l3.27.05,4.88-.05,3.12.05.78-.05c.23,0,.6.03,1.12.1.32.16.49.42.49.78,0,.33-.15.62-.44.88l-.98.15c-1.89.26-3.34.75-4.35,1.46-.55.39-1.03,1.21-1.42,2.44-.13.46-.34,1.04-.63,1.76-.16.39-.4,1.04-.71,1.95-.31.91-.71,1.98-1.19,3.22l-.59,1.37-.05.24-8.29,21.86-6.05,16.44c-.39.82-.85,1.83-1.37,3.04-1.24,2.32-1.97,3.59-2.2,3.82-.98,1.21-1.83,2.06-2.54,2.55l-2.49,1.08c-.49.13-1.01.2-1.56.2-1.47,0-2.54-.32-3.23-.96-.69-.64-1.03-1.52-1.03-2.63,0-1.05.51-2,1.52-2.85.33-.1.65-.23.98-.39l.64-.15c2.9.52,4.71.78,5.43.78.68-.36,1.19-.78,1.52-1.27,1.6-2.37,2.97-5.01,4.12-7.92,1.15-2.91,1.72-4.88,1.72-5.9,0-1.11-.43-2.72-1.29-4.83l-5.43-14.36c-.75-1.86-2.98-7.91-6.7-18.16-.23-.65-.52-1.14-.88-1.46l-3.32-1.22-1.03-.2c-.55-.23-.83-.55-.83-.98l.24-.63Z"/>
  <path class="cls-1" d="m168.12,63.38c.52-.36,1.24-.6,2.15-.73,1.3-.16,2.31-.42,3.03-.78.59-.49.98-1.19,1.17-2.1.23-1.17.34-5.29.34-12.35s-.21-11.41-.63-13.43c-.72-.46-1.64-.81-2.78-1.07-.36-.06-1.11-.24-2.25-.54v-1.64c1.93-.55,3.49-1.27,4.68-2.15,1.19-.88,2.85-2.65,4.98-5.29h.29c.2,0,.51-.02.93-.05.26.03.47.11.64.24l-.05,5.57c0,1.14.03,2.36.1,3.66,3.48-3.16,6.6-5.37,9.36-6.64,1.88-.85,4.01-1.27,6.39-1.27,2.83,0,5.07.54,6.73,1.61,1.66,1.07,3.23,3.01,4.73,5.81,2.9-2.87,5.53-4.87,7.89-6.01,2.36-1.14,4.74-1.71,7.15-1.71,3.65,0,6.64,1.19,8.98,3.57,2.31,2.41,3.5,5.95,3.56,10.61v4.06l.05,4.45-.05,11.44c-.03,1.34.26,2.35.88,3.03.26.1,1.25.39,2.98.88,1.07.29,1.71.52,1.9.69.2.16.29.39.29.68,0,.36-.1.78-.29,1.27h-.34l-4.92-.29c-.58-.03-1.51-.05-2.78-.05-1.56,0-3.73.06-6.53.2h-2.48c-.36,0-1.06.02-2.09.05-.03-.29-.05-.55-.05-.78,0-.26.11-.59.34-.98.88-.39,2.08-.71,3.61-.95,1.53-.24,2.48-.69,2.86-1.32.37-.64.56-3.17.56-7.6,0-9.62-.11-15.19-.34-16.72-.39-2.45-1.43-4.36-3.11-5.75-1.68-1.39-3.79-2.08-6.34-2.08-1.96,0-3.87.51-5.73,1.54s-3.69,2.56-5.48,4.62l-.05,1.17v7.47l-.2,5.81c0,5.92.06,9.29.17,10.11.11.81.39,1.41.83,1.78.44.38,1.72.71,3.83,1,.94.13,1.68.26,2.2.39.39.33.59.75.59,1.27,0,.42-.15.72-.44.88h-.83l-2.44-.05h-14.21l-3.91.05c-.07-.49-.1-.85-.1-1.07l.05-.59c.72-.39,2.05-.77,4-1.12,1.01-.16,2.05-.44,3.12-.83.2-.16.34-.38.44-.63.16-.46.28-1.76.34-3.91l.24-5.66-.1-6.4.05-3.56c0-4-.81-6.93-2.44-8.77-1.62-1.84-3.67-2.76-6.14-2.76-2.31,0-4.62.57-6.94,1.71-2.32,1.14-4.25,2.67-5.77,4.59-.03.91-.05,1.74-.05,2.49l.2,16.41c.03,3.58.24,5.62.61,6.13.37.51,1.21.86,2.51,1.05,2.08.29,3.43.65,4.05,1.07.29.2.44.49.44.88,0,.26-.02.57-.05.93-3.72-.26-6.22-.39-7.49-.39s-2.48.02-3.52.05l-2.45.15h-1.52l-5.48.2c-.07-.23-.1-.42-.1-.56s.06-.46.2-.95Z"/>
  <path class="cls-1" d="m282.96,58.4c.2.42.29.73.29.93,0,.49-.39,1.35-1.17,2.59-1.01,1.63-2.13,2.82-3.37,3.56-.78.49-1.86.73-3.22.73-2.34,0-4.1-.72-5.27-2.15-.72-.85-1.22-2.36-1.51-4.54l-5.47,3.81c-1.92,1.11-3.39,1.81-4.39,2.1-1.63.42-3.58.63-5.86.63-1.66,0-2.97-.5-3.93-1.49-.96-.99-1.44-2.27-1.44-3.83,0-2.25,1.38-4.93,4.14-8.06,2.76-3.12,6.5-5.68,11.23-7.67,3.33-1.4,5.37-2.29,6.12-2.69.06-1.07.1-2.25.1-3.52,0-4.13-.58-6.93-1.74-8.4-1.16-1.46-2.82-2.2-4.97-2.2s-4.36.88-6.32,2.64c-1.21,1.11-2.12,3.19-2.74,6.25-.2.85-.57,1.76-1.12,2.73-1.4.91-2.52,1.37-3.37,1.37-.72,0-1.37-.21-1.95-.63-.33-.23-.49-.49-.49-.78,0-.85.9-2.76,2.71-5.74s4.08-5.21,6.84-6.69c2.75-1.48,5.15-2.22,7.2-2.22,2.8,0,4.88.25,6.25.76,1.37.51,2.57,1.39,3.61,2.66,1.04,1.27,1.68,2.65,1.9,4.15.13.72.2,3.27.2,7.67l-.15,7.76.05,5.66c0,.75-.02,1.38-.05,1.9-.03.94-.05,1.64-.05,2.1,0,1.07.31,1.94.93,2.59.62.65,1.35.98,2.2.98,1.24,0,2.29-.62,3.17-1.86l.59-.78c.16-.1.52-.21,1.07-.34Zm-14.31-1.42c.23-4.13.34-7.05.34-8.74,0-.88-.05-2.07-.15-3.56-2.19.78-4.51,1.97-6.96,3.56-2.45,1.6-4.39,3.43-5.83,5.52-1.05,1.5-1.57,2.91-1.57,4.25s.43,2.33,1.3,3.17c.86.85,1.95,1.27,3.26,1.27,1.01,0,2.24-.36,3.68-1.07,1.89-.94,3.87-2.41,5.93-4.39Z"/>
  <path class="cls-1" d="m297.85,16.8l1.51.05.2,4.64-.1,6.01c.62.03,1.01.05,1.17.05.85,0,2.46-.06,4.83-.2,1.53-.1,2.99-.15,4.39-.15.65,0,1.63.02,2.93.05.06.65.1,1.17.1,1.56,0,.42-.1,1.09-.29,2h-.83l-7.57.24-3.76.1-.88.1c-.26.81-.39,1.76-.39,2.83l.15,7.32-.1,12.89c0,3.38.44,5.63,1.32,6.74.85,1.14,2.12,1.71,3.81,1.71.85,0,2.44-.26,4.79-.78.72-.16,1.68-.7,2.88-1.61h.44c.29,0,.53.09.71.27.18.18.27.42.27.71l-.05.34c-1.4,1.53-3,2.64-4.81,3.34s-4.21,1.05-7.2,1.05c-2.12,0-3.87-.49-5.25-1.46-1.38-.98-2.27-2.13-2.66-3.47s-.59-4.25-.59-8.74l.2-10.99-.05-5.27v-1.95c0-.91-.03-1.82-.1-2.73l-.83-.05-4,.15-.39.05c-.36,0-.63-.08-.81-.24-.18-.16-.27-.36-.27-.59,0-.39.12-.71.37-.95s.98-.62,2.22-1.15c.85-.36,1.83-1.03,2.95-2.03,1.12-.99,2.08-2.09,2.86-3.29.39-.65.94-1.89,1.66-3.71.52-1.33.91-2.28,1.17-2.83Z"/>
  <path class="cls-1" d="m314.94,63.82c3.81-.68,6.01-1.2,6.59-1.56.36-.23.54-.75.54-1.56l-.05-3.22.05-5.71-.1-14.54.05-5.42v-3.85l.15-4.73c0-7.42-.07-11.85-.22-13.29s-.43-2.35-.85-2.71c-.78-.75-2.93-1.53-6.45-2.34v-.24c0-.23.03-.55.1-.98.46-.06.9-.15,1.32-.24.42-.1.83-.16,1.22-.2,3.87-1.11,6.69-2.18,8.45-3.22h2.39c.06.91.1,3.79.1,8.65l-.05,6.21.05,8.01-.2,9.87c0,.59.03,1.24.1,1.96,2.05-2.38,3.55-3.96,4.5-4.75,1.7-1.37,3.51-2.45,5.43-3.25,1.92-.8,3.95-1.2,6.07-1.2,4.01,0,7.29,1.69,9.83,5.07,1.47,1.98,2.2,4.79,2.2,8.44l-.15,4.97.05,2.78-.2,4.83c-.13,4-.2,6.37-.2,7.12,0,.85.03,1.98.1,3.41l2.78.63c1.86.39,3.29.75,4.3,1.07l-.05,1.51-10.4-.29c-.59,0-2.18.06-4.79.2-1.6.06-2.52.1-2.78.1h-1.07c-.16-.29-.24-.54-.24-.73v-.44c.46-.59,1.3-.98,2.54-1.17l2.93-.68c.39-.33.62-.67.68-1.03.13-.84.28-5.04.44-12.58l.1-3.61c.13-3.8-.16-6.96-.88-9.46-.46-1.72-1.49-3.1-3.11-4.12-1.61-1.02-3.48-1.54-5.6-1.54-1.76,0-3.43.37-4.99,1.12-1.08.55-2.37,1.51-3.87,2.88s-2.54,2.54-3.13,3.51c-.39.65-.59,1.72-.59,3.21l.05,3.41-.1,3.55c0,.29.05,2.32.15,6.08l-.05,3.11.1,3.41c.03.49.08.84.15,1.07l6.88,1.66c.36.1.9.3,1.61.6l.15.55c0,.17-.08.43-.24.8-.94.03-1.66.05-2.15.05l-3.81-.05-8.4.1-6.3.2c-.33-.03-.81-.07-1.46-.1l-.05-.34c0-.26.13-.59.39-.98Z"/>
  <path class="cls-1" d="m366.89,30.37l.05-1.44c2.12-.62,3.25-.98,3.42-1.08,1.17-.52,2.4-1.32,3.69-2.4,1.29-1.08,2.37-2.29,3.25-3.62.39-.06.7-.1.93-.1l.59.05c.13,1.56.2,2.7.2,3.42,0,.16-.03.89-.1,2.2v2.59l.05,14.06-.15,14.89c-.03,1.21.16,2.04.59,2.51.42.47,1.68,1,3.76,1.59,1.3.36,2.28.67,2.93.93.1.23.15.42.15.59,0,.2-.08.44-.24.73-1.27-.03-2.9-.12-4.88-.24-2.7-.23-4.49-.34-5.37-.34-.42,0-3.03.08-7.81.24-.98.03-1.92.11-2.83.24-.16,0-.42-.05-.78-.15-.16-.23-.24-.42-.24-.59,0-.46.31-.81.93-1.07.13-.06,1.79-.44,4.98-1.12,1.04-.2,1.73-.52,2.05-.98.55-.68.83-1.77.83-3.27.06-2.5.1-9.36.1-20.58,0-2.24-.1-3.64-.29-4.19-.16-.39-.59-.84-1.29-1.34-.7-.5-2.19-1.02-4.47-1.54Zm4.1-25.34c0-1.07.42-2,1.25-2.78s1.83-1.17,3-1.17,2.26.44,3.17,1.32c.91.88,1.37,1.82,1.37,2.83s-.46,1.96-1.37,2.86c-.91.9-1.97,1.34-3.17,1.34s-2.21-.41-3.03-1.22c-.81-.81-1.22-1.87-1.22-3.17Z"/>
  <path class="cls-1" d="m425.98,56.1l.05,3.17c-2.54,2.7-5.05,4.59-7.52,5.66-2.47,1.07-5.39,1.61-8.74,1.61-3.65,0-6.93-.95-9.86-2.86s-5.18-4.6-6.76-8.08c-1.58-3.48-2.37-6.9-2.37-10.25,0-3.68.95-7.15,2.86-10.43s4.43-5.71,7.57-7.32c3.14-1.61,7.09-2.42,11.84-2.42s8.02.78,10.4,2.34c1.33.91,2,2.08,2,3.52,0,1.04-.34,1.9-1.03,2.59s-1.56,1.03-2.64,1.03c-1.63,0-3.42-1.01-5.37-3.03-1.2-1.24-2.29-2.09-3.27-2.56-.98-.47-2.07-.71-3.27-.71-2.9,0-5.31,1.19-7.23,3.56-2.67,3.38-4,7.63-4,12.74s1.37,9.47,4.1,12.6,5.92,4.69,9.57,4.69c2.54,0,4.79-.42,6.76-1.25,1.97-.83,4.27-2.37,6.91-4.61Z"/>
</svg>