<?xml version="1.0" encoding="UTF-8"?>
<svg id="Layer_2" data-name="Layer 2" xmlns="http://www.w3.org/2000/svg" viewBox="0 0 251.8 257.61">
  <defs>
    <style>
      .cls-1 {
        fill: #1d2954;
      }
    </style>
  </defs>
  <g id="Layer_1-2" data-name="Layer 1">
    <g>
      <g>
        <path class="cls-1" d="M.62,257.38v-12.02H8.82v1.37H2.26v3.99H7.41v1.37H2.26v5.28H.62Z"/>
        <path class="cls-1" d="M31.35,257.61c-3.51,0-5.97-2.54-5.97-6.24s2.46-6.24,5.97-6.24,5.97,2.54,5.97,6.24-2.48,6.24-5.97,6.24Zm0-11.06c-2.59,0-4.27,1.89-4.27,4.83s1.68,4.83,4.27,4.83,4.25-1.89,4.25-4.83-1.66-4.83-4.25-4.83Z"/>
        <path class="cls-1" d="M54.94,252.78v-7.42h1.64v7.44c0,2.29,1.13,3.41,3.22,3.41s3.26-1.13,3.26-3.4v-7.46h1.62v7.42c0,3.51-2.17,4.82-4.88,4.82s-4.86-1.32-4.86-4.82Z"/>
        <path class="cls-1" d="M91.17,254.56v-9.19h1.54v12.02h-1.32l-6.98-9.65v9.65h-1.54v-12.02h1.72l6.58,9.19Z"/>
        <path class="cls-1" d="M111.06,245.36h4.35c3.78,0,6.16,2.25,6.16,6.01s-2.38,6.01-6.16,6.01h-4.35v-12.02Zm4.25,10.66c2.94,0,4.54-1.74,4.54-4.65s-1.6-4.65-4.54-4.65h-2.59v9.31h2.59Z"/>
        <path class="cls-1" d="M144.56,245.36l5,12.02h-1.76l-1.45-3.53h-5.47l-1.41,3.53h-1.62l4.9-12.02h1.81Zm-3.17,7.17h4.42l-2.19-5.34h-.08l-2.16,5.34Z"/>
        <path class="cls-1" d="M169.11,257.38v-10.64h-4.37v-1.37h10.45v1.37h-4.44v10.64h-1.64Z"/>
        <path class="cls-1" d="M194.44,245.36v12.02h-1.66v-12.02h1.66Z"/>
        <path class="cls-1" d="M218.21,257.61c-3.51,0-5.97-2.54-5.97-6.24s2.46-6.24,5.97-6.24,5.97,2.54,5.97,6.24-2.48,6.24-5.97,6.24Zm0-11.06c-2.59,0-4.27,1.89-4.27,4.83s1.68,4.83,4.27,4.83,4.25-1.89,4.25-4.83-1.66-4.83-4.25-4.83Z"/>
        <path class="cls-1" d="M250.26,254.56v-9.19h1.54v12.02h-1.32l-6.98-9.65v9.65h-1.54v-12.02h1.72l6.58,9.19Z"/>
      </g>
      <g>
        <path class="cls-1" d="M0,165.31H62.7c-24.88-18.99-40.95-48.94-40.95-82.65S37.81,18.99,62.69,0H0"/>
        <path class="cls-1" d="M251.61,165.31h-62.7c24.88-18.99,40.95-48.94,40.95-82.65,0-33.72-16.07-63.67-40.95-82.65h62.69"/>
      </g>
      <g>
        <path class="cls-1" d="M8.93,215.84c.38,7.39,5.73,10.71,12.37,10.71,5.88,0,9.66-2.34,9.66-6.34,0-3.62-2.87-4.98-7.85-5.96l-9.05-1.66c-7.39-1.36-12.52-5.43-12.52-13.28,0-8.9,7.02-14.64,18.11-14.64,12.45,0,19.46,6.41,19.62,16.98l-8.68,.3c-.3-6.49-4.53-9.88-11.01-9.88-5.58,0-8.75,2.49-8.75,6.56,0,3.47,2.49,4.68,6.79,5.51l8.75,1.58c9.36,1.74,13.73,6.19,13.73,13.88,0,9.36-8.07,14.41-18.78,14.41-12.22,0-21.05-6.34-21.05-17.8l8.68-.38Z"/>
        <path class="cls-1" d="M54.27,185.59v47.53h-9.43v-47.53h9.43Z"/>
        <path class="cls-1" d="M81.43,233.12l-11.62-37.42h-.3v37.42h-8.75v-47.53h14.86l10.41,34.55h.23l9.88-34.55h14.56v47.53h-9.51v-37.42h-.3l-11.39,37.42h-8.07Z"/>
        <path class="cls-1" d="M139.06,234.02c-13.88,0-24.14-10.03-24.14-24.67s10.26-24.67,24.14-24.67,24.07,10.03,24.07,24.67-10.26,24.67-24.07,24.67Zm0-41.04c-8.75,0-14.33,6.41-14.33,16.37s5.58,16.37,14.33,16.37,14.33-6.41,14.33-16.37-5.58-16.37-14.33-16.37Z"/>
        <path class="cls-1" d="M199.19,217.27v-31.69h8.75v47.53h-7.54l-24.29-33.5v33.5h-8.75v-47.53h9.36l22.48,31.69Z"/>
        <path class="cls-1" d="M220.45,215.84c.38,7.39,5.73,10.71,12.37,10.71,5.88,0,9.66-2.34,9.66-6.34,0-3.62-2.87-4.98-7.85-5.96l-9.05-1.66c-7.39-1.36-12.52-5.43-12.52-13.28,0-8.9,7.02-14.64,18.11-14.64,12.45,0,19.46,6.41,19.62,16.98l-8.68,.3c-.3-6.49-4.53-9.88-11.02-9.88-5.58,0-8.75,2.49-8.75,6.56,0,3.47,2.49,4.68,6.79,5.51l8.75,1.58c9.36,1.74,13.73,6.19,13.73,13.88,0,9.36-8.07,14.41-18.79,14.41-12.22,0-21.05-6.34-21.05-17.8l8.68-.38Z"/>
      </g>
    </g>
  </g>
</svg>