<?xml version="1.0" encoding="UTF-8"?>
<svg id="Layer_1" data-name="Layer 1" xmlns="http://www.w3.org/2000/svg" xmlns:xlink="http://www.w3.org/1999/xlink" viewBox="0 0 131.31 189.61">
  <defs>
    <style>
      .cls-1 {
        isolation: isolate;
      }

      .cls-2 {
        fill: none;
      }

      .cls-2, .cls-3, .cls-4, .cls-5 {
        stroke-width: 0px;
      }

      .cls-6 {
        clip-path: url(#clippath-1);
      }

      .cls-3 {
        fill: #fff;
      }

      .cls-7 {
        clip-path: url(#clippath);
      }

      .cls-4 {
        fill: #ef7b10;
      }

      .cls-5 {
        fill: #1d1d1b;
      }
    </style>
    <clipPath id="clippath">
      <rect class="cls-2" x="37.72" y="26.5" width="54" height="31.85"/>
    </clipPath>
    <clipPath id="clippath-1">
      <rect class="cls-2" x="37.72" y="26.5" width="54" height="31.85"/>
    </clipPath>
  </defs>
  <path class="cls-4" d="m37.66,121.11c7.76,9.81,16.83,18.67,27.04,26.3,10.1-7.53,19.22-16.33,27.08-26.22l-27.1-26.35-27.02,26.28Z"/>
  <path class="cls-4" d="m25.06,102.26l39.65-38.09,39.73,38.19c6.6-11.73,11.61-24.56,14.69-38.28.14-.65.25-1.3.39-1.94H9.93c2.96,14.12,8.1,27.63,15.12,40.12"/>
  <path class="cls-4" d="m25.03,102.26c3.7,6.59,7.92,12.89,12.63,18.85l27.02-26.28,27.1,26.35c4.68-5.9,8.91-12.18,12.63-18.82l-39.73-38.19-39.65,38.09Z"/>
  <path class="cls-5" d="m91.66,119.32l-26.1-25.39-.88-.84-.87.84-26.03,25.33c-4.13-5.36-7.9-10.99-11.2-16.76l38.1-36.58,38.17,36.69c-3.33,5.83-7.09,11.44-11.19,16.72"/>
  <path class="cls-5" d="m64.68,64.18l39.73,38.19c-3.72,6.63-7.95,12.91-12.63,18.81l-27.1-26.35-27.02,26.29c-4.72-5.96-8.94-12.26-12.63-18.85l39.65-38.08m0,3.45l-36.53,35.08c2.92,5.05,6.2,9.98,9.78,14.68l25.02-24.35,1.74-1.69,1.74,1.69,25.11,24.41c3.55-4.66,6.82-9.57,9.77-14.64l-36.61-35.19Z"/>
  <path class="cls-5" d="m121.99,21.52c-4.66,1.41-9.6,2.18-14.75,2.18-18.13,0-33.97-9.52-42.51-23.71-8.56,14.18-24.39,23.71-42.52,23.71-5.13,0-10.08-.77-14.73-2.17-1.21,13.84-.33,27.49,2.42,40.63h109.59c2.87-13.7,3.64-27.35,2.5-40.64"/>
  <g class="cls-1">
    <g class="cls-7">
      <g class="cls-6">
        <path class="cls-3" d="m91.72,38.29v-4.66h-2.85v-3.28l-2.98-.84h-.22v-2.79s-1.03,1.24-5.75,1.24-7.1-1.45-10.66-1.45-4.47,1.95-4.47,1.95v1.13h-.12v-1.13s-1.06-1.95-4.47-1.95-6.18,1.45-10.66,1.45c-4.72,0-5.54-1.23-5.54-1.23v2.93h-.19l-3.23.68v3.28h-2.87v4.66h2.87v7.53h-2.87v4.67h2.87v5.79s4.79.74,9.22.74c5.24,0,8.26-.75,11.67-.82v1.47s1.37.67,3.2.67,3.31-.67,3.31-.67v-1.47c3.4.07,6.42.82,11.69.82,4.41,0,9.21-.74,9.21-.74v-5.79h2.85v-4.67h-2.85v-7.53h2.85Z"/>
      </g>
    </g>
  </g>
  <path class="cls-5" d="m86.13,29.2v-3.57s-.86.91-.86.91c0,.01-1.07,1.07-5.39,1.07l-5.85-.78-4.81-.67c-2.64,0-3.95,1.08-4.54,1.73-.57-.65-1.9-1.73-4.53-1.73l-4.8.68-5.85.77c-4.25,0-5.14-1.02-5.14-1.02l-.88-1.08v1.38s-.01,2.45-.01,2.45l-3.47.73v26.78l.42.06c.05.01,4.88.75,9.3.75s9.54-.57,11.17-.76v1.21l.27.14c.06.03,1.5.73,3.43.73s3.46-.7,3.52-.73l.29-.14v-1.22c1.63.19,6.81.76,11.19.76s9.25-.74,9.29-.75l.42-.06v-26.75l-3.18-.89Zm-20.94-.34c.04-.06.99-1.7,4.04-1.7l4.6.65,6.06.8c2.94,0,4.43-.46,5.26-.85v25.31c-.06-.12-1.25.78-5.26.78l-5.85-.78-4.81-.67c-2.08,0-3.31.67-4.04,1.27v-24.8Zm-20.73-1.06c.8.4,2.23.82,5.05.82l6.06-.8,4.59-.66c3.03,0,3.98,1.62,4.04,1.7v24.81c-.74-.61-1.97-1.28-4.08-1.28l-4.8.67-5.81.77c-4.25,0-5.14-1.02-5.14-1.04,0,0,.09-23.32.1-25.01m43.85,28.18c-1.22.18-5.1.69-8.72.69-5.18,0-11.56-.81-11.62-.82l-.56-.09v1.71c-.49.18-1.56.52-2.81.52s-2.24-.34-2.71-.5v-1.72l-.55.09c-.07,0-6.46.82-11.61.82-3.63,0-7.51-.51-8.73-.69v-25.1c.45-.09,1.81-.39,2.48-.52v22.73c.24.53,1.28,1.74,6.04,1.74l6.02-.78,4.6-.67c3.08,0,4.04,1.63,4.08,1.71l.14-.09h.71l.13.09c.04-.08.99-1.71,4.04-1.71l4.6.65,6.06.8c4.82,0,6.02-1.26,6.14-1.41l.09-23.17c.63.17,1.79.49,2.19.62v25.12Z"/>
  <path class="cls-5" d="m51.51,32.26c-.39.03-.64.24-.76.5l-1.6,3.55s-.08.06-.12.06c-.05,0-.12-.06-.15-.17-.04-.12-.24-.62-.65-1.6l-.52-1.15c-.18-.43-.33-.71-.38-.8-.18-.32-.41-.35-.67-.39-.03-.04-.03-.08-.03-.1,0-.04,0-.06.02-.12h.26c.3,0,.55.03.78.03.26,0,.69-.04.99-.04h.17s.04.08.04.1c0,.02,0,.09-.02.11-.19.03-.63.01-.63.29,0,.06,0,.17.04.24l1.05,2.49.88-2.06c.11-.24.12-.44.12-.55,0-.24-.17-.34-.6-.39-.01-.03-.03-.07-.03-.1,0-.03.02-.09.03-.12h.12c.19,0,.39.04.83.04.08,0,.38-.03.52-.03h.31c.02.05.04.07.04.11,0,.03-.02.08-.04.11"/>
  <path class="cls-5" d="m55.95,36.23c-1.27,0-1.96-.03-2.14-.03-.13,0-.45,0-.6,0-.17,0-.58.03-1.03.03h-.26s-.02-.06-.02-.1c0-.03,0-.08,0-.12.35-.02.59-.08.65-.13.07-.09.12-.26.14-.64,0-.19,0-.4,0-.63,0-.32,0-.72,0-1.17v-.67c-.01-.46-.24-.46-.72-.52,0-.04-.02-.07-.02-.1,0-.03.01-.1.04-.11h.23c.16,0,.58.01,1.37.01.73,0,1.43,0,1.6,0,.09,0,.38.02.43.02.1,0,.14,0,.14.09l.06.95c-.06.04-.07.05-.12.05-.04,0-.07,0-.09-.01-.29-.48-.42-.58-.64-.74-.08-.05-.19-.09-.37-.1-.06,0-.2-.01-.56-.01-.29,0-.44.01-.48.01-.04,0-.04,0-.06.17,0,.09-.02.29-.02.84v.54h.15c.18,0,.37-.01.48-.04.16-.04.34-.15.43-.3.04-.05.08-.28.1-.35.02-.02.07-.03.13-.03.04,0,.08,0,.11.03-.01.17-.04.49-.04.9,0,.21.02.66.02.83-.04.03-.06.03-.12.03-.03,0-.09,0-.12,0-.03-.36-.09-.61-.4-.72-.17-.07-.3-.09-.47-.09-.08,0-.19,0-.27.02v1.1c0,.26.02.41.06.5.03.07.13.21.25.23.06.01.17.03.39.03h.61c.15,0,.37-.02.45-.06.15-.1.54-.52.67-.9.06-.03.09-.03.13-.03.03,0,.07.01.12.03v1.11c0,.1-.07.11-.22.11"/>
  <path class="cls-5" d="m61.01,33.36s-.07-.01-.12-.01c-.1-.26-.21-.5-.31-.62-.17-.22-.34-.36-.78-.41-.1-.01-.33-.01-.41-.01v1.86c0,.29,0,.63,0,1.27.01.49.22.49.73.56.03.05.04.09.04.12,0,.04,0,.06-.03.11h-.18c-.29,0-.88-.02-1.06-.02-.13,0-.77.03-1.07.03-.03-.05-.03-.05-.03-.11,0-.02,0-.07.02-.11.68-.05.74-.17.76-.39.02-.13.02-.69.02-1.25v-1.53c0-.2-.02-.4-.04-.52-.13,0-.54,0-.65.05-.34.12-.59.4-.85.92-.03,0-.08,0-.1,0-.04,0-.08,0-.1-.03v-1.08c0-.09,0-.12.12-.12.1,0,.26.01.46.01.15,0,.77,0,1.53,0,1.01,0,1.76-.03,1.95-.03.1,0,.17,0,.21.04.01.02,0,.09,0,.15v1.08s-.07.06-.1.06"/>
  <path class="cls-5" d="m51.31,39.94s-.07-.01-.13-.01c-.09-.26-.2-.5-.31-.62-.16-.22-.34-.36-.77-.4-.1-.01-.34-.01-.41-.01v1.86c-.01.29-.01.63,0,1.27,0,.49.23.49.73.56.03.04.03.09.03.11,0,.04,0,.06-.02.11h-.18c-.3,0-.89-.02-1.06-.02-.13,0-.77.03-1.08.03-.01-.05-.02-.05-.02-.11,0-.02,0-.07.01-.11.67-.06.74-.17.77-.39,0-.13,0-.69,0-1.25v-1.53c0-.2,0-.4-.03-.52-.14,0-.55,0-.67.05-.34.12-.57.4-.83.92-.04,0-.09,0-.12,0-.04,0-.07,0-.1-.03v-1.08c0-.09.02-.12.13-.12s.25.01.46.01c.16,0,.77,0,1.54,0,.99,0,1.75-.03,1.94-.03.1,0,.17,0,.21.04.01.02,0,.09,0,.15v1.08s-.07.06-.1.06"/>
  <path class="cls-5" d="m56.11,42.81c-1.26,0-1.97-.03-2.13-.03-.13,0-.45,0-.61,0s-.58.03-1.02.03h-.25s-.03-.06-.03-.1c0-.03,0-.08.02-.12.35-.03.59-.09.63-.14.08-.09.12-.26.14-.64,0-.2.02-.41.02-.64,0-.32-.01-.71-.01-1.17,0-.34,0-.53,0-.67-.01-.45-.22-.45-.7-.52-.02-.04-.03-.08-.03-.11,0-.02.02-.09.05-.11h.22c.17,0,.58.01,1.37.01.74,0,1.43,0,1.61,0,.08,0,.38.01.42.01.11,0,.15,0,.15.09l.05.95s-.07.04-.12.04c-.03,0-.06,0-.09-.01-.27-.48-.41-.57-.64-.73-.08-.05-.18-.09-.36-.1-.06,0-.2-.01-.57-.01-.29,0-.44.01-.47.01-.05,0-.05,0-.07.16,0,.1,0,.29,0,.84v.54h.13c.19,0,.38-.01.48-.04.17-.04.34-.16.43-.3.03-.05.07-.28.09-.35.04-.02.09-.03.13-.03.05,0,.09.01.11.03,0,.17-.04.49-.04.9,0,.21.03.66.03.83-.05.03-.06.03-.12.03-.04,0-.09,0-.13,0-.03-.36-.08-.61-.4-.72-.17-.07-.3-.09-.46-.09-.08,0-.2,0-.28.02v1.1c0,.25.02.4.05.49.03.07.13.21.25.23.06.01.18.03.39.03h.62c.15,0,.36-.02.44-.06.16-.1.55-.52.68-.9.05-.03.09-.03.12-.03s.08.01.12.03v1.11c0,.1-.07.11-.22.11"/>
  <path class="cls-5" d="m59.06,42.91c-.35,0-.73-.14-.97-.25-.04-.02-.12-.04-.16-.04-.04,0-.17.07-.31.17-.1,0-.22-.05-.25-.13,0-.08.08-.34.08-.51,0-.1-.03-.58-.04-.68.04-.06.11-.09.18-.09h.07c.09.18.26.64.39.82.27.3.65.44.93.44.31,0,.55-.06.68-.21.19-.19.24-.3.24-.5,0-.15-.03-.29-.12-.38-.11-.14-.2-.19-.43-.31-.19-.09-.83-.25-1.07-.38-.29-.13-.43-.25-.58-.4-.18-.22-.24-.53-.24-.77,0-.67.53-1.19,1.29-1.19.28,0,.67.04,1,.29.07-.07.16-.16.25-.24.12,0,.2.07.21.11-.01.09-.06.36-.06.57,0,.11.06.55.06.63-.04.02-.09.05-.16.05-.02,0-.05,0-.07-.01-.12-.21-.23-.55-.36-.74-.19-.26-.46-.36-.84-.36-.41,0-.75.27-.75.62s.28.51.51.62c.18.06.39.15.63.22.31.11.55.19.67.25.49.26.69.62.69,1.11,0,.78-.7,1.28-1.48,1.28"/>
  <path class="cls-5" d="m53,49.4c-1.28,0-1.97-.03-2.14-.03-.13,0-.45,0-.61,0-.17,0-.58.02-1.03.02h-.26s-.02-.06-.02-.1c0-.03,0-.08,0-.12.34-.02.59-.08.64-.13.07-.09.12-.26.14-.64,0-.19,0-.4,0-.63,0-.32,0-.72,0-1.17v-.67c-.01-.46-.23-.46-.71-.52,0-.04-.02-.07-.02-.11,0-.02.01-.1.04-.11h.24c.15,0,.57.01,1.37.01.73,0,1.44,0,1.6,0,.1,0,.38.01.44.01.09,0,.14,0,.14.1l.06.95c-.06.03-.07.05-.12.05-.04,0-.07,0-.09-.02-.29-.47-.42-.57-.63-.73-.08-.05-.19-.09-.37-.11-.06,0-.21-.01-.56-.01-.29,0-.44.01-.48.01-.04,0-.04,0-.06.17,0,.09-.02.29-.02.84v.54h.15c.18,0,.37-.01.48-.04.16-.04.34-.16.43-.3.04-.05.08-.28.1-.35.02-.02.08-.04.13-.04.04,0,.08.01.11.04-.01.17-.04.49-.04.9,0,.21.02.65.02.84-.05.03-.07.03-.12.03-.03,0-.09,0-.12,0-.03-.36-.1-.6-.4-.73-.17-.07-.3-.09-.47-.09-.08,0-.19,0-.27.02v1.1c0,.25.02.41.06.5.03.06.13.21.25.23.06.01.17.03.39.03h.6c.15,0,.38-.02.46-.06.15-.1.54-.52.67-.91.06-.03.09-.03.13-.03.03,0,.07.01.12.04v1.11c0,.1-.07.11-.22.11"/>
  <path class="cls-5" d="m59.12,45.41c-.43.02-.8.26-.8.93v2.16c0,.09.03.7.03.93-.07.03-.14.06-.17.06-.03,0-.07-.03-.12-.06l-2.96-3.19.03.65v1.18c.01.09.03.31.05.48.02.27.1.35.22.44.14.13.38.17.56.19.02.03.03.06.03.09,0,.01,0,.08-.04.11h-.32c-.27,0-.48,0-.76,0-.19,0-.45.02-.63.02h-.14s0-.08,0-.1c0-.02,0-.06.02-.11.21-.02.55-.12.67-.29.05-.1.07-.3.07-.5v-1.51c0-.24-.01-.37-.02-.61-.01-.19-.05-.34-.15-.45,0-.03-.1-.12-.2-.22-.09-.08-.33-.14-.47-.21-.02-.04-.03-.09-.03-.09,0-.04,0-.09.03-.12h.11c.09,0,.55.03.89.03h.2s.11.06.13.09l2.2,2.4c.17.17.38.42.5.58v-1.74c0-.22-.01-.39-.03-.48-.02-.18-.05-.34-.12-.44-.07-.12-.48-.17-.69-.22-.03-.04-.03-.09-.03-.13,0-.02,0-.04.01-.09h.13c.2,0,.54.03.74.03.5,0,.66-.02.91-.02h.17s.02.08.02.11c0,.02,0,.07-.02.1"/>
  <path class="cls-5" d="m72.98,32.23c-.42.02-.8.26-.8.94v2.15c0,.09.03.7.03.94-.06.03-.14.07-.17.07-.03,0-.05-.04-.12-.07l-2.96-3.19.04.65v1.17c0,.09.03.31.04.48.03.27.1.35.22.45.15.12.4.16.56.18.02.03.03.07.03.1,0,.01,0,.07-.03.11h-.33c-.26,0-.48,0-.76,0-.19,0-.44.02-.62.02h-.14s-.02-.08-.02-.1,0-.05.02-.11c.2-.02.54-.12.66-.29.06-.11.07-.3.07-.51v-1.5c0-.25,0-.37-.01-.61,0-.19-.06-.34-.15-.45-.02-.03-.1-.13-.21-.23-.08-.07-.33-.14-.47-.21,0-.04-.02-.09-.02-.09,0-.03.01-.09.02-.12h.11c.08,0,.54.03.89.03h.2s.11.06.13.09l2.2,2.4c.17.17.38.42.49.58v-1.74c0-.22-.02-.39-.03-.47,0-.18-.05-.34-.12-.45-.07-.11-.48-.17-.68-.22-.02-.04-.03-.09-.03-.12,0-.02,0-.05.02-.09h.13c.21,0,.53.03.73.03.5,0,.67-.02.92-.02h.16s.03.08.03.11-.01.07-.03.1"/>
  <path class="cls-5" d="m77.34,35.71c-.41.4-.97.63-1.5.63s-1.07-.21-1.47-.6c-.44-.42-.63-.98-.63-1.6s.19-1.17.63-1.59c.46-.44.97-.64,1.48-.64.36,0,.7.11,1.11.32.64.42,1.03,1.11,1.03,1.87,0,.59-.24,1.18-.65,1.61m-.68-3.07c-.21-.27-.46-.44-.83-.44-.35,0-.58.16-.78.44-.25.32-.39.83-.39,1.49s.14,1.15.37,1.46c.21.31.46.47.83.47.44,0,.7-.22.91-.58.19-.32.27-.77.27-1.35,0-.7-.13-1.18-.38-1.5"/>
  <path class="cls-5" d="m83.31,32.26c-.38.03-.63.24-.74.5l-1.6,3.55s-.08.06-.13.06-.12-.06-.15-.17c-.04-.12-.23-.62-.66-1.6l-.51-1.15c-.19-.43-.33-.71-.38-.8-.2-.32-.42-.35-.67-.39-.05-.04-.05-.08-.05-.1,0-.04,0-.06.03-.12h.26c.29,0,.54.03.77.03.26,0,.7-.04,1-.04h.16s.05.08.05.1c0,.02,0,.09-.03.11-.2.03-.63.01-.63.29,0,.06,0,.17.04.24l1.04,2.49.89-2.06c.1-.24.11-.44.11-.55,0-.24-.17-.34-.6-.39-.01-.03-.03-.07-.03-.1,0-.03.01-.09.03-.12h.12c.19,0,.39.04.83.04.07,0,.38-.03.52-.03h.31c.02.05.02.07.02.11,0,.03,0,.08-.04.11"/>
  <path class="cls-5" d="m71.6,39.94s-.07-.01-.12-.01c-.09-.26-.2-.5-.31-.62-.16-.22-.34-.36-.77-.4-.1-.01-.34-.01-.41-.01v1.86c-.01.29-.01.63,0,1.27,0,.49.23.49.74.56.03.04.03.09.03.11,0,.04,0,.06-.02.11h-.19c-.3,0-.88-.02-1.06-.02-.13,0-.77.03-1.09.03-.01-.05-.02-.05-.02-.11,0-.02,0-.07.01-.11.67-.06.74-.17.77-.39,0-.13,0-.69,0-1.25v-1.53c0-.2,0-.4-.02-.52-.13,0-.55,0-.66.05-.34.12-.57.4-.84.92-.04,0-.09,0-.11,0-.04,0-.07,0-.1-.03v-1.08c0-.09.02-.12.13-.12s.26.01.46.01c.16,0,.77,0,1.54,0,1,0,1.75-.03,1.95-.03.1,0,.17,0,.2.04.01.02,0,.09,0,.15v1.08s-.06.06-.1.06"/>
  <path class="cls-5" d="m76.64,42.82h-.33c-.21,0-.46-.03-.71-.03-.4,0-.9.03-1.1.03-.02-.03-.03-.06-.03-.12,0-.02.01-.06.02-.09.41-.02.57-.09.57-.26,0-.07,0-.2-.13-.54-.13-.31-.19-.45-.23-.53-.01-.03-.02-.04-.11-.04h-1.33c-.08.1-.19.4-.31.8-.03.11-.03.21-.03.24,0,.14.13.29.6.31.03.04.03.09.03.11,0,.04,0,.07-.01.11h-.11c-.32,0-.4-.02-.73-.02-.21,0-.73.02-.9.02-.02-.04-.03-.05-.03-.09,0-.02,0-.06.03-.1.25-.06.48-.12.6-.32.07-.09.29-.48.53-1.08.24-.56.52-1.27.65-1.56.17-.37.24-.49.29-.61.08-.19.19-.37.22-.44.04-.05.13-.08.17-.08.06,0,.15.04.18.09.04.07.08.16.1.21.24.58.43,1.1.74,1.81.15.36.23.6.4.97.12.24.18.42.3.64.16.32.41.32.66.39,0,.03.04.06.04.09,0,.04-.02.06-.04.11m-2.66-3.34h-.01c-.09.17-.24.52-.3.69-.22.54-.3.73-.34.8h1.25c-.09-.25-.42-1.02-.6-1.49"/>
  <path class="cls-5" d="m83.13,42.81l-1.71-.02h-.47s-.02-.08-.02-.11c0-.06.01-.06.04-.11.09,0,.32,0,.42-.04.18-.08.24-.25.24-.51v-3.02h0l-.89,1.97c-.1.21-.22.44-.31.68-.2.45-.31.77-.37.95-.03.07-.1.07-.13.07-.06,0-.1-.02-.13-.11-.12-.26-.2-.42-.24-.52l-1.4-3.08h-.03v.79l.03,1.96c0,.6.31.89.78.89.02.03.04.09.04.1,0,.03,0,.06-.03.1-.03,0-.13.01-.21.01-.06,0-.37-.03-.82-.03-.12,0-.39.01-.59.01h-.29s-.02-.07-.02-.11c0,0,0-.06.02-.09.12-.03.53-.12.61-.21.09-.09.17-.26.17-.69v-2.16c-.01-.34-.05-.48-.22-.59-.07-.04-.33-.07-.55-.11-.03-.04-.03-.08-.03-.11,0-.02,0-.07.03-.11.16,0,.45.02.75.02h1.02s.06.05.09.11l1.25,2.84.22-.57c.2-.46.48-1.15.88-1.88.09-.17.2-.38.26-.49l1.6-.03s.04.07.04.11,0,.06-.03.1c-.17.04-.47.04-.62.27-.05.09-.08.16-.08.5v2.03c0,.78.2.86.29.91.05.04.29.06.43.06.02.04.03.07.03.11,0,.05-.02.06-.03.1"/>
  <path class="cls-5" d="m71.51,46.53s-.07-.01-.13-.01c-.09-.26-.2-.5-.31-.62-.16-.22-.34-.35-.77-.41-.1-.01-.34-.01-.41-.01v1.86c-.01.3-.01.64,0,1.28,0,.49.23.49.73.56.03.04.03.09.03.12,0,.04,0,.06-.02.11h-.19c-.3,0-.89-.02-1.06-.02-.13,0-.76.02-1.08.02-.01-.05-.02-.05-.02-.11,0-.02,0-.07.01-.11.67-.05.74-.17.77-.39,0-.14,0-.69,0-1.25v-1.53c0-.19,0-.39-.03-.52-.13,0-.55,0-.66.06-.34.12-.57.41-.83.92-.04,0-.09,0-.12,0-.04,0-.07,0-.1-.03v-1.08c0-.09.02-.13.13-.13s.26.01.46.01c.16,0,.77.01,1.54.01.99,0,1.75-.03,1.95-.03.1,0,.17,0,.2.04.01.02,0,.09,0,.15v1.08s-.06.05-.1.05"/>
  <path class="cls-5" d="m76.73,45.43c-.38.03-.63.24-.75.5l-1.6,3.54s-.07.06-.13.06c-.05,0-.12-.06-.15-.17-.04-.13-.23-.62-.66-1.6l-.51-1.15c-.18-.43-.32-.71-.37-.8-.2-.32-.42-.36-.67-.39-.04-.04-.04-.07-.04-.1,0-.04,0-.07.03-.12h.26c.3,0,.54.03.77.03.26,0,.69-.03,1-.03h.16s.05.07.05.1c0,.03,0,.09-.03.11-.2.03-.63.01-.63.29,0,.05,0,.17.04.24l1.04,2.49.89-2.06c.1-.24.11-.44.11-.55,0-.24-.17-.34-.6-.39-.01-.03-.02-.07-.02-.1s.01-.09.02-.12h.12c.19,0,.39.03.84.03.07,0,.38-.03.52-.03h.31s.03.06.03.11c0,.02,0,.08-.04.11"/>
  <path class="cls-5" d="m83.22,49.4l-1.69-.02h-.48s-.02-.08-.02-.11c0-.06,0-.07.02-.11.1,0,.32,0,.43-.04.16-.07.23-.25.23-.5v-2.44s.01-.45.01-.58h-.02l-.88,1.96c-.11.22-.22.45-.33.68-.2.45-.31.77-.37.95-.02.08-.09.08-.13.08-.05,0-.09-.02-.13-.12-.11-.26-.19-.42-.22-.52l-1.41-3.08h-.03v.78l.03,1.96c.02.6.31.88.8.88.02.03.03.09.03.11,0,.02,0,.06-.02.1-.04,0-.12.01-.22.01-.06,0-.36-.03-.8-.03-.13,0-.4.01-.6.01h-.28s-.03-.07-.03-.11c0,0,.01-.06.03-.09.11-.02.52-.12.61-.2.08-.09.16-.26.16-.69v-.99s0-1.17,0-1.17c-.01-.34-.04-.48-.22-.59-.07-.05-.33-.08-.55-.11-.03-.04-.04-.08-.04-.11,0-.02.01-.07.04-.12.15,0,.46.02.74.02h1.03s.05.06.08.11l1.25,2.84.23-.57c.19-.45.48-1.15.87-1.88.08-.16.19-.37.26-.49l1.58-.03s.05.08.05.11-.02.06-.04.1c-.16.03-.47.03-.61.27-.05.08-.1.16-.1.5v2.03c0,.78.2.86.3.91.04.03.29.06.42.06.03.04.04.08.04.12,0,.05-.02.06-.04.1"/>
  <g>
    <path class="cls-5" d="m131.03,156.99c0-.07-.02-.19-.05-.25h-.41c-.88,0-1.45.03-3.04.03-.55,0-1.36-.03-1.55-.03h-.46c-.06.03-.07.23-.07.3,0,.09.02.23.09.3.28.09,1.36.21,1.82.51.32.37.46,1.11.52,1.8.02.26.03.53.03,1.25v3.69c0,.42-.02.57-.03.76-.3-.34-.72-.97-1.43-1.76l-5.9-6.54c-.05-.07-.16-.16-.27-.23-.14,0-.39-.02-.53-.02-1.13,0-3.18-.05-3.48-.05-.04.07-.07.17-.07.25,0,.04.03.28.05.34.27.07.85.16,1.32.67.28.32.78.76.93,1.11.06.13.07.32.07.57,0,.91-.05,2.21-.05,3.44v3.59c0,.58-.05,1.04-.1,1.34-.37.39-.94.67-1.86.9-.03.09-.07.23-.07.32,0,.05.02.23.05.25h.34c.35,0,1.16-.05,1.69-.05.78,0,1.31.05,2.03.05h1.06c.07-.01.08-.23.08-.3s-.02-.21-.05-.28c-.62-.16-1.52-.3-2.12-1.09-.13-.27-.23-1.57-.23-2.19,0-.56-.02-1.34-.02-2.38,0-1.4.02-2.61.03-3.23.11.12.23.28.32.38l8.16,9.17c.09.09.41.11.49.11s.14,0,.21-.03c.03-.09.16-.37.16-.79,0-.51-.02-1.05-.02-1.31v-7.37c0-2.21,1.04-2.82,2.26-2.88.05-.09.07-.25.07-.33m-20.24,5.62c0,2.67-.74,5.02-1.75,5.85-.52.43-1.15.64-1.88.64-.99,0-1.85-.39-2.35-1.18-.67-1.02-1.04-2.93-1.04-4.59,0-2.46.63-4.38,1.77-5.32.6-.49,1.21-.69,1.83-.69.96,0,1.87.46,2.4,1.22.67.92,1,2.24,1,4.08m3.19.34c0-2.47-1.09-4.36-3.14-5.49-1.09-.6-2.19-.9-3.35-.9-2.58,0-4.91,1.54-5.95,3.29-.67,1.09-1.02,2.29-1.02,3.56,0,2.03.99,4.03,2.52,5.18,1.17.85,2.49,1.27,4.03,1.27.94,0,1.82-.17,2.68-.51.97-.37,1.8-.95,2.46-1.68,1.15-1.25,1.78-2.86,1.78-4.71m-15.52-2.22v-3.6c0-.27-.1-.33-.37-.33-.53,0-3.32.07-6.14.07-2.19,0-4.01-.03-5-.03h-1.31c-.23,0-.3.05-.3.3v3.37c.07.05.19.07.28.07.07,0,.32,0,.39-.04.79-1.6,1.54-2.47,2.47-2.95.53-.05,1.57-.07,1.86-.07.02.19.03.81.05,1.55.02,1.27.02,1.82.02,4.82,0,2.6-.02,3.76-.05,4.04-.07.49.02.87-2.1.96-.05.12-.05.26-.05.4,0,.07,0,.22.02.28h.69c.65,0,2.19-.07,2.83-.07.51,0,2.15.05,3.23.05h.49c.05-.09.05-.28.05-.37,0-.11-.02-.23-.07-.32-.19,0-1.33.03-1.82-.33-.05-.19-.16-.71-.16-1.33-.02-1.91-.04-2.63-.04-3.9,0-1.64.02-2.75.02-5.81.25,0,.81-.02,1.34,0,1.1.3,1.63.71,2.1,1.34.3.41.62,1.09.93,1.92.11.03.2.03.3.03.07,0,.3-.03.34-.07m-15.22,5.74c0-.25,0-.35-.02-.51-.09-.05-.12-.05-.26-.05-.13,0-.26,0-.39.04-.6,1.36-1.46,2.42-1.94,2.7-.26.16-.67.2-1.33.2h-1.44c-.57,0-1.01-.05-1.17-.09-.27-.05-.55-.48-.67-.76-.13-.3-.2-.3-.2-1.11v-3.87h.65c.18,0,.6.03,1.07.25.44.2.62.46.8.74.16.25.27,1.22.3,1.47.09.05.32.07.46.07s.23-.02.35-.09c0-.48-.1-1.76-.1-2.47,0-.88.12-2.1.17-2.73-.07-.04-.17-.07-.35-.07-.12,0-.35,0-.46.05-.05.25-.25.99-.28,1.04-.26.44-.73.78-1.2.92-.32.09-.78.14-1.02.14h-.37v-1.64c0-1.7.03-2.24.05-2.56.02-.21.05-.44.07-.6.16-.02.25-.03,1.06-.03,1.02,0,1.5.02,1.66.02.5.04.87.14,1.13.35.67.51,1.18,1.32,1.7,2.19.11.04.28.04.37.04.11,0,.12-.04.27-.11,0-1.08-.08-2.47-.11-2.91-.02-.18-.05-.23-.4-.23-.14,0-.81-.03-1.52-.03-1.01,0-1.42.02-2.95.02-.83,0-2.54.02-3.26.02-1.06,0-1.96-.03-2.42-.03h-.6c-.05.07-.09.21-.09.28,0,.09.03.29.09.35.21.07,1.04.05,1.29.19.24.21.47.3.63,1.15.04.37.05,1.39.05,2.21v3.64c0,.74-.02,1.82-.04,2.26-.03.69-.28,1.52-.39,1.68-.16.12-.88.23-1.59.26-.05.11-.09.29-.09.39s.04.23.09.32h.58c.57,0,2.65-.05,3.13-.05.44,0,1.29.03,2.31.03.57,0,2.22.11,5.79.11.14,0,.3.02.47-.04.05-.09.05-.12.07-.28.04-.35.04-1.39.04-2.82m-14.94.62c-.05-.16-.2-.42-.6-.42-.04,0-.09.02-.12.02-1.06,1.5-2.23,2.07-3.55,2.07-1.83,0-3.14-1.24-3.56-2.33-.23-.58-.55-1.85-.55-3.21,0-1.29.19-2.33.53-3.09.78-2.05,1.91-2.68,3.29-2.68,1.15,0,2.1.66,2.82,1.59.3.41.62,1.2.9,2.14.07.02.23.05.39.05.11,0,.35-.09.42-.16-.02-.19-.19-1.55-.19-1.98,0-.53.14-1.39.14-1.73-.11-.11-.46-.18-.69-.19-.26.19-.35.42-.6.72-.99-.71-1.91-1.25-3.92-1.25-1.85,0-3.32.63-4.43,1.75-1.22,1.2-1.89,2.86-1.89,4.98,0,2.26.95,4.11,2.49,5.28.97.7,2.4,1.18,4.11,1.18,2.16,0,3.73-.81,4.52-1.89.32-.43.35-.53.5-.83m-13.75-10.08c0-.07-.02-.19-.05-.25h-.41c-.88,0-1.45.03-3.04.03-.54,0-1.36-.03-1.55-.03h-.46c-.05.03-.07.23-.07.3,0,.09.02.23.09.3.28.09,1.36.21,1.82.51.32.37.46,1.11.51,1.8.02.26.04.53.04,1.25v3.69c0,.42-.02.57-.04.76-.3-.34-.72-.97-1.43-1.76l-5.89-6.54c-.05-.07-.16-.16-.27-.23-.14,0-.39-.02-.53-.02-1.13,0-3.18-.05-3.48-.05-.04.07-.07.17-.07.25,0,.04.03.28.05.34.27.07.85.16,1.32.67.28.32.78.76.94,1.11.05.13.07.32.07.57,0,.91-.05,2.21-.05,3.44v3.59c0,.58-.05,1.04-.11,1.34-.37.39-.94.67-1.85.9-.04.09-.07.23-.07.32,0,.05.02.23.05.25h.34c.35,0,1.16-.05,1.7-.05.78,0,1.31.05,2.03.05h1.05c.07-.01.09-.23.09-.3s-.02-.21-.05-.28c-.61-.16-1.51-.3-2.11-1.09-.12-.27-.23-1.57-.23-2.19,0-.56-.02-1.34-.02-2.38,0-1.4.02-2.61.04-3.23.11.12.23.28.32.38l8.15,9.17c.09.09.41.11.5.11s.14,0,.21-.03c.03-.09.16-.37.16-.79,0-.51-.02-1.05-.02-1.31v-7.37c0-2.21,1.04-2.82,2.26-2.88.05-.09.07-.25.07-.33m-17.46,12.24c0-.09-.02-.28-.05-.35-.27-.02-.99-.09-1.31-.16-.28-.34-.48-.72-.6-1.36-.02-.85-.04-2.6-.04-4.24v-4.34c0-.48.19-.85.32-.96.34-.32,1-.38,1.57-.46.04-.07.05-.26.05-.33,0-.11-.05-.25-.09-.28h-.51c-.74,0-2.47.09-3.07.09-.37,0-2.1-.05-2.88-.07h-.39c-.05.07-.09.14-.09.3,0,.07.01.25.03.34.87.07,1.25.16,1.38.25.21.16.51.55.58,1.5.02.34.03,1.06.05,2.69.02.89.04,2.12.04,3.14,0,.51-.04,1.66-.05,2.28-.03.43-.12.83-.25,1.06-.21.18-.43.49-1.71.58-.04.07-.06.3-.06.37,0,.14.04.21.04.3h.3c.71,0,2.47-.09,3.39-.09.27,0,2.1.05,2.68.05h.59c.05-.09.07-.23.07-.3m-14.16-9.22c0,1.09-.74,2.35-1.61,2.56-.35.09-.8.14-1.45.14-.18,0-.45,0-.65-.04l-.02-1.5v-3.25c0-.21.05-.34.11-.39.05-.05.37-.1.74-.1,1.38,0,1.98.12,2.47.95.28.48.41,1.02.41,1.63m5.12,9.24c0-.09-.04-.3-.09-.37-.18,0-.9-.04-1.17-.23-.09-.1-.23-.32-.3-.44-.23-.81-.49-1.36-.76-2.03-.37-.88-.88-1.72-1.31-2.11-.16-.14-.71-.37-1.33-.58-.28-.11-.51-.19-.72-.28.26-.05.39-.08.72-.1,1.31-.16,1.61-.39,1.94-.66.71-.53,1.1-1.34,1.1-2.3,0-1.43-.92-2.8-2.21-3.21-.43-.12-1.18-.19-2.12-.19-1.33,0-3.18.12-4.06.12-.27,0-1.8-.04-2.42-.04-.26,0-.93-.03-1.04-.03-.05.12-.09.26-.09.34,0,.07.02.25.03.32.3.03.85.1,1.13.16.42.32.56.57.74.96.09.56.11,2.01.11,4.5,0,1.8.02,3.89-.07,4.56-.05.44-.21.97-.73,1.18-.23.04-.65.11-1,.12-.06.09-.09.27-.09.35,0,.05.03.19.07.28.25,0,2.95-.05,3.51-.05,1.13,0,2.09.05,3.09.05.04-.07.07-.19.07-.27,0-.12-.03-.3-.07-.37-.35-.03-.79-.14-.99-.18-.44-.21-.76-.63-.76-1.25l-.02-4.08c.14-.02.32-.02.46-.02.23,0,.49.04.94.28.65.37.97.64,1.39,1.29.57.88.94,2.5,1.11,3.8.05.37.2.69.53.72.14.02,1.08.05,1.75.05h2.52c.07-.07.1-.21.1-.3m-19.18-9.15c0,.9-.32,1.7-.9,2.21-.37.3-.96.48-1.84.48-.37,0-.65-.01-.76-.03-.14-.02-.23-.03-.23-.13l.02-5.17c.21-.01.51-.09,1.02-.09,1.2,0,1.94.3,2.3,1.04.25.47.39,1.07.39,1.69m3.16.07c0-1.32-.76-2.56-1.89-3.07-.58-.25-1.61-.41-3.16-.41-1.36,0-3.48.11-4.41.11-.65,0-1.64-.07-2.19-.07-.06.09-.09.21-.09.28s0,.27.05.35c.33.11.88.19,1.24.28.3.26.37.49.48,1.01.05.62.09,1.4.09,2.74,0,3.73-.02,5.68-.07,6.11-.07.53-.42,1.08-1.01,1.25-.27.05-.65.14-1.02.18-.02.09-.04.21-.04.37,0,.14.02.16.05.25.56,0,2.23-.07,2.86-.07,1.57,0,3.18.07,3.83.07h.45c.05-.07.05-.2.05-.28,0-.11,0-.25-.04-.32-.53-.07-1.33-.18-1.66-.57-.18-.21-.36-.51-.36-1.04l-.05-3.89c1.06.07,2.19.11,2.81.11.81,0,1.5-.14,2.05-.32,1.25-.47,2.03-1.71,2.03-3.07"/>
    <path class="cls-5" d="m131.31,176.69c0-.11-.07-.14-.11-.21-.72,0-1.68.05-2.05.05-.9,0-1.99-.07-2.47-.07-.05.11-.07.12-.07.21s.02.16.03.21c.52.1,1.25.23,1.4.48.12.22.16.4.16.69,0,.21-.02.42-.11.65-.16.44-.5,1.13-.97,2.1-.81,1.64-1.32,2.66-1.61,3.07-.46-.77-1.48-2.82-1.73-3.35l-.99-2.16c-.04-.07-.07-.32-.07-.48,0-.23.03-.39.07-.46.16-.32.71-.36,1.45-.45.03-.09.05-.19.05-.26,0-.12-.05-.09-.11-.18h-.32c-1.18,0-.83.05-2.86.05-.86,0-1.91-.05-2.05-.05-.07.13-.11.14-.11.27,0,.07.02.13.07.22,1.18.28,1.53.49,1.66.72l3.09,6.06c.3.57.48,1.01.57,1.32.12.49.14,1.22.14,2.12,0,.76-.26,1.17-.57,1.36-.12.07-1.01.19-1.41.23-.07.12-.09.16-.09.25s.04.14.05.21c.9,0,1.84-.02,2.37-.02.37,0,.94.02,1.98.04.6.02,1.06.04,1.38.04.04-.08.09-.14.09-.23s-.02-.14-.07-.23c-.57-.07-1.36-.18-1.54-.35-.28-.3-.42-.44-.46-1.13l-.14-2.65c-.02-.19.05-.37.07-.42.05-.2.12-.35.19-.49l2.72-5.39c.24-.46.78-.97,1.13-1.18.25-.16.8-.27,1.15-.36.04-.09.07-.16.07-.23m-14.27,3.64v-3.43c0-.26-.11-.33-.37-.33-.53,0-2.97.07-5.8.07-2.19,0-3.65-.03-4.64-.03h-1.31c-.23,0-.3.05-.3.3v3.2c.07.05.13.07.21.07.07,0,.14,0,.21-.03.69-1.54,1.04-2.35,2.22-2.95.53-.05,2.38-.07,2.67-.07.02.19.03.81.05,1.55.02,1.27.02,1.96.02,4.96,0,2.59-.02,3.94-.05,4.22-.07.5.02.87-2.1.95-.05.12-.05.16-.05.3,0,.07,0,.14.02.21h.69c.65,0,1.52-.07,2.15-.07.51,0,1.48.05,2.56.05h.5c.05-.09.05-.18.05-.26,0-.11-.02-.16-.07-.25-.19,0-1.33.04-1.82-.34-.05-.19-.16-.7-.16-1.32-.01-1.91-.04-2.81-.04-4.08,0-1.64.02-2.89.02-5.95.25,0,1.55-.02,2.08,0,1.09.3,1.52.7,1.99,1.34.42.57.53,1.08.8,1.92.11.04.16.04.27.04.07,0,.16-.04.19-.07m-14.67,8.72c0-.09-.02-.18-.05-.25-.26-.02-.99-.09-1.31-.16-.28-.33-.47-.72-.6-1.36-.02-.85-.04-2.77-.04-4.42v-4.48c0-.48.19-.85.32-.95.34-.32,1.01-.39,1.57-.46.04-.07.06-.16.06-.22,0-.11-.06-.18-.09-.21h-.51c-.74,0-1.8.09-2.4.09-.37,0-1.43-.05-2.21-.07h-.39c-.05.07-.08.07-.08.23,0,.07.02.14.03.23.87.07,1.26.16,1.38.25.21.16.51.55.58,1.5.02.33.03,1.24.05,2.86.02.88.03,2.08.03,3.11,0,.52-.03,1.84-.05,2.45-.03.42-.12.83-.24,1.06-.21.18-.43.5-1.72.59-.03.07-.05.19-.05.26,0,.14.03.14.03.23h.3c.71,0,1.8-.09,2.72-.09.27,0,1.43.05,2.01.05h.58c.05-.08.07-.16.07-.23m-8.73-3.25c0-1.41-.63-2.38-2-3.11-.37-.21-1.02-.44-1.96-.71-1.08-.3-1.98-.65-2.56-.97-.39-.21-1.04-.79-1.04-1.92s1.15-2.06,2.49-2.06c1.06,0,1.91.53,2.42,1.23.44.62.6.9,1.09,2.01.05.02.12.04.18.04.16,0,.3-.09.39-.18-.05-.44-.14-1.06-.14-1.59,0-.46.11-1.06.16-1.38-.14-.21-.3-.25-.53-.25-.25.16-.48.4-.69.64-1.16-.94-2.12-1.1-3-1.1-2.17,0-3.73,1.45-3.73,3.37,0,.66.23,1.29.65,1.94.39.55.96.97,1.72,1.29.51.21,2.81.9,3.12,1.02,1.41.55,1.94,1.02,1.94,2.28,0,.62-.27,1.17-.78,1.78-.46.57-1.18.83-1.96.83-.83,0-2.26-.35-2.97-1.31-.43-.55-1.02-1.7-1.2-2.39q-.12-.03-.25-.03c-.11,0-.23.03-.34.1,0,.23.07,1.39.07,1.75,0,.86-.16,1.29-.19,1.58.05.18.35.35.57.35.37-.32.75-.57.88-.57.1,0,.26.05.42.16,1.15.74,2.1.88,2.95.88,2.49,0,4.27-1.25,4.27-3.71m-15.63-6.09c0,1.13-.9,2.4-1.94,2.63-.43.09-1.05.14-1.84.14-.21,0-.81,0-1.08-.04l-.02-1.55v-3.34c0-.23.05-.36.12-.41.07-.05.8-.11,1.24-.11,1.66,0,2.42.16,3.02,1.02.34.48.49,1.03.49,1.64m3.71,9.36c0-.08-.03-.19-.09-.26-.17,0-.9-.03-1.16-.23-.09-.1-.23-.31-.3-.44-.23-.81-.48-1.54-.74-2.21-.37-.88-.88-1.72-1.31-2.1-.16-.14-.66-.37-1.27-.58-.28-.11-.51-.2-.72-.28.27-.05.39-.07.72-.11,1.15-.14,1.54-.39,1.87-.65.71-.53,1.16-1.32,1.16-2.28,0-1.43-.92-2.79-2.21-3.2-.43-.12-1.18-.19-2.12-.19-1.32,0-2.31.12-3.2.12-.26,0-1.13-.03-1.75-.03-.27,0-.94-.03-1.04-.03-.05.12-.09.16-.09.23,0,.07.02.17.04.25.3.04.85.11,1.13.16.43.32.57.57.74.96.09.56.11,2.15.11,4.64,0,1.8.02,4.06-.07,4.73-.05.44-.21.97-.73,1.18-.23.04-.65.11-1.01.13-.05.09-.09.16-.09.25,0,.05.04.12.07.21.25,0,2.28-.05,2.84-.05,1.13,0,1.41.05,2.42.05.04-.07.07-.12.07-.19,0-.12-.04-.19-.07-.26-.35-.04-.8-.14-.99-.18-.44-.21-.76-.64-.76-1.26l-.02-4.41c.14-.02.65-.02.79-.02.48,0,.96.04,1.41.25.67.3,1.31.78,1.73,1.43.57.88.94,2.56,1.12,3.85.05.37.19.69.53.72.14.02.35.05,1.03.05h1.84c.07-.07.11-.14.11-.23m-14.82-2.68c0-.25,0-.36-.02-.51-.09-.05-.12-.05-.27-.05-.12,0-.11,0-.23.04-.39,1.29-1.06,2.25-1.82,2.7-.26.16-.74.19-1.5.19h-1.98c-.62-.02-1.01-.05-1.17-.09-.26-.05-.55-.48-.67-.76-.13-.3-.2-.41-.2-1.22v-4.03h.57c.57,0,1.02.04,1.5.25.45.19.78.47.95.76.16.25.22,1.22.25,1.47.09.05.14.07.28.07s.16-.01.28-.09c0-.47-.11-1.76-.11-2.47,0-.88.12-1.96.17-2.6-.07-.04-.11-.07-.28-.07-.13,0-.17,0-.29.05-.05.25-.19.99-.22,1.05-.27.44-.89.79-1.36.93-.32.09-.78.14-1.45.14h-.28v-1.73c0-1.7.04-2.38.05-2.7.02-.21.05-.44.07-.6.16-.02.67-.04,1.48-.04,1.02,0,1.78.02,1.94.02.49.03.86.14,1.13.35.86.67,1.09,1.12,1.57,2.19.11.03.12.03.21.03.11,0,.12-.03.26-.1,0-1.08-.07-2.3-.11-2.74-.02-.18-.05-.23-.41-.23-.14,0-.81-.03-1.52-.03-1.01,0-1.42.02-2.95.02-.83,0-2.29.02-3.02.02-1.06,0-1.29-.03-1.75-.03h-.6c-.05.07-.09.14-.09.21,0,.09.03.18.09.25.21.07,1.05.05,1.3.19.24.22.47.27.63,1.11.03.37.05,1.57.05,2.39v3.63c0,.74-.02,1.96-.04,2.4-.04.69-.28,1.56-.39,1.72-.16.13-.88.23-1.59.26-.05.11-.09.18-.09.28s.04.16.09.25h.58c.57,0,1.98-.05,2.46-.05.44,0,1.04.03,2.06.03.57,0,2.22.11,5.8.11.14,0,.3.02.47-.04.05-.09.05-.12.07-.28.04-.35.04-1.22.04-2.65m-13.07-9.64c0-.07-.02-.18-.09-.2h-.6c-.42,0-1.09.04-1.4.04-1.43,0-1.94-.09-2.16-.09h-.32c-.04.09-.09.14-.09.23,0,.07.04.13.04.19.44.05.83.14,1.22.27.21.21.44.64.44,1.12,0,.17-.18,1-.43,1.61l-2.84,6.99-3.49-8.85c.05-.42.28-.83.58-.99.3-.03.67-.14,1.15-.14.03-.07.07-.17.07-.25s-.02-.18-.09-.19h-.45c-.54,0-1.37.07-2.3.07-.41,0-1.2-.03-1.98-.03h-.69c-.04.07-.07.11-.07.21s.02.14.05.21c.49.12.97.31,1.48.6.33.5,1.06,2.28,1.45,3.21l1.46,3.53c1.21,2.93,1.94,4.89,2.03,5.23.09.05,0,.1.16.1s.14-.03.18-.12l4.56-10.95c.16-.39.4-.76.63-1.01.28-.32.87-.44,1.41-.56.02-.07.07-.14.07-.22m-15.46,12.3c0-.09-.01-.18-.05-.25-.27-.02-.99-.09-1.31-.16-.28-.33-.48-.72-.6-1.36-.02-.85-.03-2.77-.03-4.42v-4.48c0-.48.19-.85.32-.95.33-.32,1-.39,1.57-.46.04-.07.05-.16.05-.22,0-.11-.05-.18-.09-.21h-.51c-.74,0-1.8.09-2.4.09-.37,0-1.43-.05-2.21-.07h-.39c-.05.07-.09.07-.09.23,0,.07.02.14.04.23.86.07,1.25.16,1.38.25.21.16.51.55.58,1.5.02.33.04,1.24.05,2.86.02.88.04,2.08.04,3.11,0,.52-.04,1.84-.05,2.45-.04.42-.12.83-.25,1.06-.21.18-.42.5-1.71.59-.04.07-.05.19-.05.26,0,.14.04.14.04.23h.3c.71,0,1.81-.09,2.72-.09.27,0,1.43.05,2.01.05h.58c.06-.08.07-.16.07-.23m-7.98-12.34c0-.07-.02-.12-.05-.17h-.4c-.88,0-1.27.03-2.86.03-.55,0-1.36-.03-1.55-.03h-.46c-.05.03-.07.16-.07.23,0,.09.02.12.09.19.28.09,1.36.21,1.82.51.32.37.46,1.12.51,1.8.02.26.03.53.03,1.25v5.24c0,.43-.02.57-.03.76-.3-.33-.81-.99-1.5-1.8l-6.75-7.87c-.05-.07-.16-.16-.27-.23-.14,0-.32-.02-.46-.02-1.13,0-2.12-.05-2.42-.05-.03.07-.05.11-.05.18,0,.04.02.18.03.23.27.08,1.04.16,1.36.5.28.32.7.69.86,1.04.05.12.07.31.07.56,0,.92-.05,2.59-.05,3.83v3.76c0,.58-.05,1.04-.11,1.34-.37.39-.94.67-1.85.9-.04.09-.07.12-.07.21,0,.05.02.16.05.17h.33c.35,0,1.17-.05,1.7-.05.77,0,1.13.05,1.85.05h1.07c.07-.01.08-.16.08-.23s-.01-.11-.05-.18c-.62-.16-1.52-.3-2.12-1.1-.12-.27-.23-1.61-.23-2.22,0-.56-.02-1.48-.02-2.52,0-1.39.02-3.32.04-3.94.1.12.27.31.39.46l8.37,9.8c.09.09.12.1.21.1s.03,0,.1-.03c.03-.09.09-.37.09-.79,0-.51-.02-1.04-.02-1.31v-7.5c0-2.21,1.04-2.83,2.26-2.88.05-.09.07-.14.07-.23m-16.35.09c0-.07-.03-.18-.09-.23h-.51c-.55,0-1.29.03-1.93.03-.7,0-1.5-.03-2.01-.03h-.63c-.05.11-.07.14-.07.23,0,.07.02.14.05.23.07,0,1.36.01,1.59.33.19.27.62.91.69,1.31.04.18.14.9.14,1.94,0,1.5,0,2.51-.02,3.04-.04.99-.14,1.77-.32,2.35-.49,1.54-1.64,2.3-3.46,2.3-.78,0-1.45-.16-2.07-.44-1.15-.56-1.7-1.64-1.71-2.22l-.09-5.29v-2.15c-.01-.41.49-.78.67-.99.14-.07.92-.14,1.36-.18.05-.11.09-.16.09-.25s-.05-.18-.12-.23h-.67c-.66.03-1.52.05-2.07.05-.85,0-1.5-.02-2.03-.02H.09c-.07.05-.09.16-.09.25s.02.16.07.22c.56.07.93.12,1.18.17.3.18.51.48.62.78.02.23.05.8.05,1.91v4.24c0,1.1.06,1.87.18,2.36.23.92.72,1.64,1.54,2.17.86.57,1.94.85,3.23.85,1.18,0,2.19-.25,3.04-.72.88-.48,1.43-1.25,1.75-2.35.18-.65.28-1.36.28-2.1v-3.39c0-.63.04-1.43.04-1.75.02-.95.26-1.52.53-1.94.28-.09.53-.14,1.46-.25.04-.07.07-.12.07-.21"/>
  </g>
</svg>