<?xml version="1.0" encoding="UTF-8"?>
<svg id="Layer_1" data-name="Layer 1" xmlns="http://www.w3.org/2000/svg" xmlns:xlink="http://www.w3.org/1999/xlink" viewBox="0 0 155.64 204.74">
  <defs>
    <style>
      .cls-1 {
        isolation: isolate;
      }

      .cls-2 {
        fill: none;
      }

      .cls-2, .cls-3, .cls-4, .cls-5 {
        stroke-width: 0px;
      }

      .cls-6 {
        clip-path: url(#clippath-1);
      }

      .cls-3 {
        fill: #fff;
      }

      .cls-7 {
        clip-path: url(#clippath);
      }

      .cls-4 {
        fill: #ef7b10;
      }

      .cls-5 {
        fill: #1d1d1b;
      }
    </style>
    <clipPath id="clippath">
      <rect class="cls-2" x="49.89" y="26.5" width="54" height="31.85"/>
    </clipPath>
    <clipPath id="clippath-1">
      <rect class="cls-2" x="49.89" y="26.5" width="54" height="31.85"/>
    </clipPath>
  </defs>
  <path class="cls-4" d="m49.83,121.11c7.76,9.81,16.83,18.67,27.04,26.3,10.1-7.53,19.22-16.33,27.08-26.22l-27.1-26.35-27.02,26.28Z"/>
  <path class="cls-4" d="m37.22,102.26l39.65-38.09,39.73,38.19c6.6-11.73,11.61-24.56,14.69-38.28.14-.65.25-1.3.39-1.94H22.1c2.96,14.12,8.1,27.63,15.12,40.12"/>
  <path class="cls-4" d="m37.2,102.26c3.7,6.59,7.92,12.89,12.63,18.85l27.02-26.28,27.1,26.35c4.68-5.9,8.91-12.18,12.63-18.82l-39.73-38.19-39.65,38.09Z"/>
  <path class="cls-5" d="m103.83,119.32l-26.1-25.39-.88-.84-.87.84-26.03,25.33c-4.13-5.36-7.9-10.99-11.2-16.76l38.1-36.58,38.17,36.69c-3.33,5.83-7.09,11.44-11.19,16.72"/>
  <path class="cls-5" d="m76.85,64.18l39.73,38.19c-3.72,6.63-7.95,12.91-12.63,18.81l-27.1-26.35-27.02,26.29c-4.72-5.96-8.94-12.26-12.63-18.85l39.65-38.08m0,3.45l-36.53,35.08c2.92,5.05,6.2,9.98,9.78,14.68l25.02-24.35,1.74-1.69,1.74,1.69,25.11,24.41c3.55-4.66,6.82-9.57,9.77-14.64l-36.61-35.19Z"/>
  <path class="cls-5" d="m134.15,21.52c-4.66,1.41-9.6,2.18-14.75,2.18-18.13,0-33.97-9.52-42.51-23.71-8.56,14.18-24.39,23.71-42.52,23.71-5.13,0-10.08-.77-14.73-2.17-1.21,13.84-.33,27.49,2.42,40.63h109.59c2.87-13.7,3.64-27.35,2.5-40.64"/>
  <g class="cls-1">
    <g class="cls-7">
      <g class="cls-6">
        <path class="cls-3" d="m103.89,38.29v-4.66h-2.85v-3.28l-2.98-.84h-.22v-2.79s-1.03,1.24-5.75,1.24-7.1-1.45-10.66-1.45-4.47,1.95-4.47,1.95v1.13h-.12v-1.13s-1.06-1.95-4.47-1.95-6.18,1.45-10.66,1.45c-4.72,0-5.54-1.23-5.54-1.23v2.93h-.19l-3.23.68v3.28h-2.87v4.66h2.87v7.53h-2.87v4.67h2.87v5.79s4.79.74,9.22.74c5.24,0,8.26-.75,11.67-.82v1.47s1.37.67,3.2.67,3.31-.67,3.31-.67v-1.47c3.4.07,6.42.82,11.69.82,4.41,0,9.21-.74,9.21-.74v-5.79h2.85v-4.67h-2.85v-7.53h2.85Z"/>
      </g>
    </g>
  </g>
  <path class="cls-5" d="m98.29,29.2v-3.57s-.86.91-.86.91c0,.01-1.07,1.07-5.39,1.07l-5.85-.78-4.81-.67c-2.64,0-3.95,1.08-4.54,1.73-.57-.65-1.9-1.73-4.53-1.73l-4.8.68-5.85.77c-4.25,0-5.14-1.02-5.14-1.02l-.88-1.08v1.38s-.01,2.45-.01,2.45l-3.47.73v26.78l.42.06c.05.01,4.88.75,9.3.75s9.54-.57,11.17-.76v1.21l.27.14c.06.03,1.5.73,3.43.73s3.46-.7,3.52-.73l.29-.14v-1.22c1.63.19,6.81.76,11.19.76s9.25-.74,9.29-.75l.42-.06v-26.75l-3.18-.89Zm-20.94-.34c.04-.06.99-1.7,4.04-1.7l4.6.65,6.06.8c2.94,0,4.43-.46,5.26-.85v25.31c-.06-.12-1.25.78-5.26.78l-5.85-.78-4.81-.67c-2.08,0-3.31.67-4.04,1.27v-24.8Zm-20.73-1.06c.8.4,2.23.82,5.05.82l6.06-.8,4.59-.66c3.03,0,3.98,1.62,4.04,1.7v24.81c-.74-.61-1.97-1.28-4.08-1.28l-4.8.67-5.81.77c-4.25,0-5.14-1.02-5.14-1.04,0,0,.09-23.32.1-25.01m43.85,28.18c-1.22.18-5.1.69-8.72.69-5.18,0-11.56-.81-11.62-.82l-.56-.09v1.71c-.49.18-1.56.52-2.81.52s-2.24-.34-2.71-.5v-1.72l-.55.09c-.07,0-6.46.82-11.61.82-3.63,0-7.51-.51-8.73-.69v-25.1c.45-.09,1.81-.39,2.48-.52v22.73c.24.53,1.28,1.74,6.04,1.74l6.02-.78,4.6-.67c3.08,0,4.04,1.63,4.08,1.71l.14-.09h.71l.13.09c.04-.08.99-1.71,4.04-1.71l4.6.65,6.06.8c4.82,0,6.02-1.26,6.14-1.41l.09-23.17c.63.17,1.79.49,2.19.62v25.12Z"/>
  <path class="cls-5" d="m63.68,32.26c-.39.03-.64.24-.76.5l-1.6,3.55s-.08.06-.12.06c-.05,0-.12-.06-.15-.17-.04-.12-.24-.62-.65-1.6l-.52-1.15c-.18-.43-.33-.71-.38-.8-.18-.32-.41-.35-.67-.39-.03-.04-.03-.08-.03-.1,0-.04,0-.06.02-.12h.26c.3,0,.55.03.78.03.26,0,.69-.04.99-.04h.17s.04.08.04.1c0,.02,0,.09-.02.11-.19.03-.63.01-.63.29,0,.06,0,.17.04.24l1.05,2.49.88-2.06c.11-.24.12-.44.12-.55,0-.24-.17-.34-.6-.39-.01-.03-.03-.07-.03-.1,0-.03.02-.09.03-.12h.12c.19,0,.39.04.83.04.08,0,.38-.03.52-.03h.31c.02.05.04.07.04.11,0,.03-.02.08-.04.11"/>
  <path class="cls-5" d="m68.12,36.23c-1.27,0-1.96-.03-2.14-.03-.13,0-.45,0-.6,0-.17,0-.58.03-1.03.03h-.26s-.02-.06-.02-.1c0-.03,0-.08,0-.12.35-.02.59-.08.65-.13.07-.09.12-.26.14-.64,0-.19,0-.4,0-.63,0-.32,0-.72,0-1.17v-.67c-.01-.46-.24-.46-.72-.52,0-.04-.02-.07-.02-.1,0-.03.01-.1.04-.11h.23c.16,0,.58.01,1.37.01.73,0,1.43,0,1.6,0,.09,0,.38.02.43.02.1,0,.14,0,.14.09l.06.95c-.06.04-.07.05-.12.05-.04,0-.07,0-.09-.01-.29-.48-.42-.58-.64-.74-.08-.05-.19-.09-.37-.1-.06,0-.2-.01-.56-.01-.29,0-.44.01-.48.01-.04,0-.04,0-.06.17,0,.09-.02.29-.02.84v.54h.15c.18,0,.37-.01.48-.04.16-.04.34-.15.43-.3.04-.05.08-.28.1-.35.02-.02.07-.03.13-.03.04,0,.08,0,.11.03-.01.17-.04.49-.04.9,0,.21.02.66.02.83-.04.03-.06.03-.12.03-.03,0-.09,0-.12,0-.03-.36-.09-.61-.4-.72-.17-.07-.3-.09-.47-.09-.08,0-.19,0-.27.02v1.1c0,.26.02.41.06.5.03.07.13.21.25.23.06.01.17.03.39.03h.61c.15,0,.37-.02.45-.06.15-.1.54-.52.67-.9.06-.03.09-.03.13-.03.03,0,.07.01.12.03v1.11c0,.1-.07.11-.22.11"/>
  <path class="cls-5" d="m73.17,33.36s-.07-.01-.12-.01c-.1-.26-.21-.5-.31-.62-.17-.22-.34-.36-.78-.41-.1-.01-.33-.01-.41-.01v1.86c0,.29,0,.63,0,1.27.01.49.22.49.73.56.03.05.04.09.04.12,0,.04,0,.06-.03.11h-.18c-.29,0-.88-.02-1.06-.02-.13,0-.77.03-1.07.03-.03-.05-.03-.05-.03-.11,0-.02,0-.07.02-.11.68-.05.74-.17.76-.39.02-.13.02-.69.02-1.25v-1.53c0-.2-.02-.4-.04-.52-.13,0-.54,0-.65.05-.34.12-.59.4-.85.92-.03,0-.08,0-.1,0-.04,0-.08,0-.1-.03v-1.08c0-.09,0-.12.12-.12.1,0,.26.01.46.01.15,0,.77,0,1.53,0,1.01,0,1.76-.03,1.95-.03.1,0,.17,0,.21.04.01.02,0,.09,0,.15v1.08s-.07.06-.1.06"/>
  <path class="cls-5" d="m63.47,39.94s-.07-.01-.13-.01c-.09-.26-.2-.5-.31-.62-.16-.22-.34-.36-.77-.4-.1-.01-.34-.01-.41-.01v1.86c-.01.29-.01.63,0,1.27,0,.49.23.49.73.56.03.04.03.09.03.11,0,.04,0,.06-.02.11h-.18c-.3,0-.89-.02-1.06-.02-.13,0-.77.03-1.08.03-.01-.05-.02-.05-.02-.11,0-.02,0-.07.01-.11.67-.06.74-.17.77-.39,0-.13,0-.69,0-1.25v-1.53c0-.2,0-.4-.03-.52-.14,0-.55,0-.67.05-.34.12-.57.4-.83.92-.04,0-.09,0-.12,0-.04,0-.07,0-.1-.03v-1.08c0-.09.02-.12.13-.12s.25.01.46.01c.16,0,.77,0,1.54,0,.99,0,1.75-.03,1.94-.03.1,0,.17,0,.21.04.01.02,0,.09,0,.15v1.08s-.07.06-.1.06"/>
  <path class="cls-5" d="m68.27,42.81c-1.26,0-1.97-.03-2.13-.03-.13,0-.45,0-.61,0s-.58.03-1.02.03h-.25s-.03-.06-.03-.1c0-.03,0-.08.02-.12.35-.03.59-.09.63-.14.08-.09.12-.26.14-.64,0-.2.02-.41.02-.64,0-.32-.01-.71-.01-1.17,0-.34,0-.53,0-.67-.01-.45-.22-.45-.7-.52-.02-.04-.03-.08-.03-.11,0-.02.02-.09.05-.11h.22c.17,0,.58.01,1.37.01.74,0,1.43,0,1.61,0,.08,0,.38.01.42.01.11,0,.15,0,.15.09l.05.95s-.07.04-.12.04c-.03,0-.06,0-.09-.01-.27-.48-.41-.57-.64-.73-.08-.05-.18-.09-.36-.1-.06,0-.2-.01-.57-.01-.29,0-.44.01-.47.01-.05,0-.05,0-.07.16,0,.1,0,.29,0,.84v.54h.13c.19,0,.38-.01.48-.04.17-.04.34-.16.43-.3.03-.05.07-.28.09-.35.04-.02.09-.03.13-.03.05,0,.09.01.11.03,0,.17-.04.49-.04.9,0,.21.03.66.03.83-.05.03-.06.03-.12.03-.04,0-.09,0-.13,0-.03-.36-.08-.61-.4-.72-.17-.07-.3-.09-.46-.09-.08,0-.2,0-.28.02v1.1c0,.25.02.4.05.49.03.07.13.21.25.23.06.01.18.03.39.03h.62c.15,0,.36-.02.44-.06.16-.1.55-.52.68-.9.05-.03.09-.03.12-.03s.08.01.12.03v1.11c0,.1-.07.11-.22.11"/>
  <path class="cls-5" d="m71.23,42.91c-.35,0-.73-.14-.97-.25-.04-.02-.12-.04-.16-.04-.04,0-.17.07-.31.17-.1,0-.22-.05-.25-.13,0-.08.08-.34.08-.51,0-.1-.03-.58-.04-.68.04-.06.11-.09.18-.09h.07c.09.18.26.64.39.82.27.3.65.44.93.44.31,0,.55-.06.68-.21.19-.19.24-.3.24-.5,0-.15-.03-.29-.12-.38-.11-.14-.2-.19-.43-.31-.19-.09-.83-.25-1.07-.38-.29-.13-.43-.25-.58-.4-.18-.22-.24-.53-.24-.77,0-.67.53-1.19,1.29-1.19.28,0,.67.04,1,.29.07-.07.16-.16.25-.24.12,0,.2.07.21.11-.01.09-.06.36-.06.57,0,.11.06.55.06.63-.04.02-.09.05-.16.05-.02,0-.05,0-.07-.01-.12-.21-.23-.55-.36-.74-.19-.26-.46-.36-.84-.36-.41,0-.75.27-.75.62s.28.51.51.62c.18.06.39.15.63.22.31.11.55.19.67.25.49.26.69.62.69,1.11,0,.78-.7,1.28-1.48,1.28"/>
  <path class="cls-5" d="m65.16,49.4c-1.28,0-1.97-.03-2.14-.03-.13,0-.45,0-.61,0-.17,0-.58.02-1.03.02h-.26s-.02-.06-.02-.1c0-.03,0-.08,0-.12.34-.02.59-.08.64-.13.07-.09.12-.26.14-.64,0-.19,0-.4,0-.63,0-.32,0-.72,0-1.17v-.67c-.01-.46-.23-.46-.71-.52,0-.04-.02-.07-.02-.11,0-.02.01-.1.04-.11h.24c.15,0,.57.01,1.37.01.73,0,1.44,0,1.6,0,.1,0,.38.01.44.01.09,0,.14,0,.14.1l.06.95c-.06.03-.07.05-.12.05-.04,0-.07,0-.09-.02-.29-.47-.42-.57-.63-.73-.08-.05-.19-.09-.37-.11-.06,0-.21-.01-.56-.01-.29,0-.44.01-.48.01-.04,0-.04,0-.06.17,0,.09-.02.29-.02.84v.54h.15c.18,0,.37-.01.48-.04.16-.04.34-.16.43-.3.04-.05.08-.28.1-.35.02-.02.08-.04.13-.04.04,0,.08.01.11.04-.01.17-.04.49-.04.9,0,.21.02.65.02.84-.05.03-.07.03-.12.03-.03,0-.09,0-.12,0-.03-.36-.1-.6-.4-.73-.17-.07-.3-.09-.47-.09-.08,0-.19,0-.27.02v1.1c0,.25.02.41.06.5.03.06.13.21.25.23.06.01.17.03.39.03h.6c.15,0,.38-.02.46-.06.15-.1.54-.52.67-.91.06-.03.09-.03.13-.03.03,0,.07.01.12.04v1.11c0,.1-.07.11-.22.11"/>
  <path class="cls-5" d="m71.29,45.41c-.43.02-.8.26-.8.93v2.16c0,.09.03.7.03.93-.07.03-.14.06-.17.06-.03,0-.07-.03-.12-.06l-2.96-3.19.03.65v1.18c.01.09.03.31.05.48.02.27.1.35.22.44.14.13.38.17.56.19.02.03.03.06.03.09,0,.01,0,.08-.04.11h-.32c-.27,0-.48,0-.76,0-.19,0-.45.02-.63.02h-.14s0-.08,0-.1c0-.02,0-.06.02-.11.21-.02.55-.12.67-.29.05-.1.07-.3.07-.5v-1.51c0-.24-.01-.37-.02-.61-.01-.19-.05-.34-.15-.45,0-.03-.1-.12-.2-.22-.09-.08-.33-.14-.47-.21-.02-.04-.03-.09-.03-.09,0-.04,0-.09.03-.12h.11c.09,0,.55.03.89.03h.2s.11.06.13.09l2.2,2.4c.17.17.38.42.5.58v-1.74c0-.22-.01-.39-.03-.48-.02-.18-.05-.34-.12-.44-.07-.12-.48-.17-.69-.22-.03-.04-.03-.09-.03-.13,0-.02,0-.04.01-.09h.13c.2,0,.54.03.74.03.5,0,.66-.02.91-.02h.17s.02.08.02.11c0,.02,0,.07-.02.1"/>
  <path class="cls-5" d="m85.14,32.23c-.42.02-.8.26-.8.94v2.15c0,.09.03.7.03.94-.06.03-.14.07-.17.07-.03,0-.05-.04-.12-.07l-2.96-3.19.04.65v1.17c0,.09.03.31.04.48.03.27.1.35.22.45.15.12.4.16.56.18.02.03.03.07.03.1,0,.01,0,.07-.03.11h-.33c-.26,0-.48,0-.76,0-.19,0-.44.02-.62.02h-.14s-.02-.08-.02-.1,0-.05.02-.11c.2-.02.54-.12.66-.29.06-.11.07-.3.07-.51v-1.5c0-.25,0-.37-.01-.61,0-.19-.06-.34-.15-.45-.02-.03-.1-.13-.21-.23-.08-.07-.33-.14-.47-.21,0-.04-.02-.09-.02-.09,0-.03.01-.09.02-.12h.11c.08,0,.54.03.89.03h.2s.11.06.13.09l2.2,2.4c.17.17.38.42.49.58v-1.74c0-.22-.02-.39-.03-.47,0-.18-.05-.34-.12-.45-.07-.11-.48-.17-.68-.22-.02-.04-.03-.09-.03-.12,0-.02,0-.05.02-.09h.13c.21,0,.53.03.73.03.5,0,.67-.02.92-.02h.16s.03.08.03.11-.01.07-.03.1"/>
  <path class="cls-5" d="m89.51,35.71c-.41.4-.97.63-1.5.63s-1.07-.21-1.47-.6c-.44-.42-.63-.98-.63-1.6s.19-1.17.63-1.59c.46-.44.97-.64,1.48-.64.36,0,.7.11,1.11.32.64.42,1.03,1.11,1.03,1.87,0,.59-.24,1.18-.65,1.61m-.68-3.07c-.21-.27-.46-.44-.83-.44-.35,0-.58.16-.78.44-.25.32-.39.83-.39,1.49s.14,1.15.37,1.46c.21.31.46.47.83.47.44,0,.7-.22.91-.58.19-.32.27-.77.27-1.35,0-.7-.13-1.18-.38-1.5"/>
  <path class="cls-5" d="m95.47,32.26c-.38.03-.63.24-.74.5l-1.6,3.55s-.08.06-.13.06-.12-.06-.15-.17c-.04-.12-.23-.62-.66-1.6l-.51-1.15c-.19-.43-.33-.71-.38-.8-.2-.32-.42-.35-.67-.39-.05-.04-.05-.08-.05-.1,0-.04,0-.06.03-.12h.26c.29,0,.54.03.77.03.26,0,.7-.04,1-.04h.16s.05.08.05.1c0,.02,0,.09-.03.11-.2.03-.63.01-.63.29,0,.06,0,.17.04.24l1.04,2.49.89-2.06c.1-.24.11-.44.11-.55,0-.24-.17-.34-.6-.39-.01-.03-.03-.07-.03-.1,0-.03.01-.09.03-.12h.12c.19,0,.39.04.83.04.07,0,.38-.03.52-.03h.31c.02.05.02.07.02.11,0,.03,0,.08-.04.11"/>
  <path class="cls-5" d="m83.77,39.94s-.07-.01-.12-.01c-.09-.26-.2-.5-.31-.62-.16-.22-.34-.36-.77-.4-.1-.01-.34-.01-.41-.01v1.86c-.01.29-.01.63,0,1.27,0,.49.23.49.74.56.03.04.03.09.03.11,0,.04,0,.06-.02.11h-.19c-.3,0-.88-.02-1.06-.02-.13,0-.77.03-1.09.03-.01-.05-.02-.05-.02-.11,0-.02,0-.07.01-.11.67-.06.74-.17.77-.39,0-.13,0-.69,0-1.25v-1.53c0-.2,0-.4-.02-.52-.13,0-.55,0-.66.05-.34.12-.57.4-.84.92-.04,0-.09,0-.11,0-.04,0-.07,0-.1-.03v-1.08c0-.09.02-.12.13-.12s.26.01.46.01c.16,0,.77,0,1.54,0,1,0,1.75-.03,1.95-.03.1,0,.17,0,.2.04.01.02,0,.09,0,.15v1.08s-.06.06-.1.06"/>
  <path class="cls-5" d="m88.8,42.82h-.33c-.21,0-.46-.03-.71-.03-.4,0-.9.03-1.1.03-.02-.03-.03-.06-.03-.12,0-.02.01-.06.02-.09.41-.02.57-.09.57-.26,0-.07,0-.2-.13-.54-.13-.31-.19-.45-.23-.53-.01-.03-.02-.04-.11-.04h-1.33c-.08.1-.19.4-.31.8-.03.11-.03.21-.03.24,0,.14.13.29.6.31.03.04.03.09.03.11,0,.04,0,.07-.01.11h-.11c-.32,0-.4-.02-.73-.02-.21,0-.73.02-.9.02-.02-.04-.03-.05-.03-.09,0-.02,0-.06.03-.1.25-.06.48-.12.6-.32.07-.09.29-.48.53-1.08.24-.56.52-1.27.65-1.56.17-.37.24-.49.29-.61.08-.19.19-.37.22-.44.04-.05.13-.08.17-.08.06,0,.15.04.18.09.04.07.08.16.1.21.24.58.43,1.1.74,1.81.15.36.23.6.4.97.12.24.18.42.3.64.16.32.41.32.66.39,0,.03.04.06.04.09,0,.04-.02.06-.04.11m-2.66-3.34h-.01c-.09.17-.24.52-.3.69-.22.54-.3.73-.34.8h1.25c-.09-.25-.42-1.02-.6-1.49"/>
  <path class="cls-5" d="m95.3,42.81l-1.71-.02h-.47s-.02-.08-.02-.11c0-.06.01-.06.04-.11.09,0,.32,0,.42-.04.18-.08.24-.25.24-.51v-3.02h0l-.89,1.97c-.1.21-.22.44-.31.68-.2.45-.31.77-.37.95-.03.07-.1.07-.13.07-.06,0-.1-.02-.13-.11-.12-.26-.2-.42-.24-.52l-1.4-3.08h-.03v.79l.03,1.96c0,.6.31.89.78.89.02.03.04.09.04.1,0,.03,0,.06-.03.1-.03,0-.13.01-.21.01-.06,0-.37-.03-.82-.03-.12,0-.39.01-.59.01h-.29s-.02-.07-.02-.11c0,0,0-.06.02-.09.12-.03.53-.12.61-.21.09-.09.17-.26.17-.69v-2.16c-.01-.34-.05-.48-.22-.59-.07-.04-.33-.07-.55-.11-.03-.04-.03-.08-.03-.11,0-.02,0-.07.03-.11.16,0,.45.02.75.02h1.02s.06.05.09.11l1.25,2.84.22-.57c.2-.46.48-1.15.88-1.88.09-.17.2-.38.26-.49l1.6-.03s.04.07.04.11,0,.06-.03.1c-.17.04-.47.04-.62.27-.05.09-.08.16-.08.5v2.03c0,.78.2.86.29.91.05.04.29.06.43.06.02.04.03.07.03.11,0,.05-.02.06-.03.1"/>
  <path class="cls-5" d="m83.67,46.53s-.07-.01-.13-.01c-.09-.26-.2-.5-.31-.62-.16-.22-.34-.35-.77-.41-.1-.01-.34-.01-.41-.01v1.86c-.01.3-.01.64,0,1.28,0,.49.23.49.73.56.03.04.03.09.03.12,0,.04,0,.06-.02.11h-.19c-.3,0-.89-.02-1.06-.02-.13,0-.76.02-1.08.02-.01-.05-.02-.05-.02-.11,0-.02,0-.07.01-.11.67-.05.74-.17.77-.39,0-.14,0-.69,0-1.25v-1.53c0-.19,0-.39-.03-.52-.13,0-.55,0-.66.06-.34.12-.57.41-.83.92-.04,0-.09,0-.12,0-.04,0-.07,0-.1-.03v-1.08c0-.09.02-.13.13-.13s.26.01.46.01c.16,0,.77.01,1.54.01.99,0,1.75-.03,1.95-.03.1,0,.17,0,.2.04.01.02,0,.09,0,.15v1.08s-.06.05-.1.05"/>
  <path class="cls-5" d="m88.89,45.43c-.38.03-.63.24-.75.5l-1.6,3.54s-.07.06-.13.06c-.05,0-.12-.06-.15-.17-.04-.13-.23-.62-.66-1.6l-.51-1.15c-.18-.43-.32-.71-.37-.8-.2-.32-.42-.36-.67-.39-.04-.04-.04-.07-.04-.1,0-.04,0-.07.03-.12h.26c.3,0,.54.03.77.03.26,0,.69-.03,1-.03h.16s.05.07.05.1c0,.03,0,.09-.03.11-.2.03-.63.01-.63.29,0,.05,0,.17.04.24l1.04,2.49.89-2.06c.1-.24.11-.44.11-.55,0-.24-.17-.34-.6-.39-.01-.03-.02-.07-.02-.1s.01-.09.02-.12h.12c.19,0,.39.03.84.03.07,0,.38-.03.52-.03h.31s.03.06.03.11c0,.02,0,.08-.04.11"/>
  <path class="cls-5" d="m95.39,49.4l-1.69-.02h-.48s-.02-.08-.02-.11c0-.06,0-.07.02-.11.1,0,.32,0,.43-.04.16-.07.23-.25.23-.5v-2.44s.01-.45.01-.58h-.02l-.88,1.96c-.11.22-.22.45-.33.68-.2.45-.31.77-.37.95-.02.08-.09.08-.13.08-.05,0-.09-.02-.13-.12-.11-.26-.19-.42-.22-.52l-1.41-3.08h-.03v.78l.03,1.96c.02.6.31.88.8.88.02.03.03.09.03.11,0,.02,0,.06-.02.1-.04,0-.12.01-.22.01-.06,0-.36-.03-.8-.03-.13,0-.4.01-.6.01h-.28s-.03-.07-.03-.11c0,0,.01-.06.03-.09.11-.02.52-.12.61-.2.08-.09.16-.26.16-.69v-.99s0-1.17,0-1.17c-.01-.34-.04-.48-.22-.59-.07-.05-.33-.08-.55-.11-.03-.04-.04-.08-.04-.11,0-.02.01-.07.04-.12.15,0,.46.02.74.02h1.03s.05.06.08.11l1.25,2.84.23-.57c.19-.45.48-1.15.87-1.88.08-.16.19-.37.26-.49l1.58-.03s.05.08.05.11-.02.06-.04.1c-.16.03-.47.03-.61.27-.05.08-.1.16-.1.5v2.03c0,.78.2.86.3.91.04.03.29.06.42.06.03.04.04.08.04.12,0,.05-.02.06-.04.1"/>
  <g>
    <path class="cls-5" d="m155.3,166.07c0-.08-.02-.23-.06-.29h-.48c-1.05,0-1.71.04-3.6.04-.65,0-1.62-.04-1.84-.04h-.54c-.07.04-.09.27-.09.36,0,.11.02.27.11.36.34.11,1.61.25,2.15.6.38.44.55,1.32.61,2.14.02.31.04.63.04,1.48v4.37c0,.5-.02.67-.04.9-.36-.4-.86-1.15-1.7-2.09l-6.99-7.75c-.06-.08-.19-.19-.32-.27-.17,0-.46-.02-.62-.02-1.34,0-3.77-.06-4.12-.06-.05.08-.09.21-.09.29,0,.04.04.34.06.4.31.08,1,.19,1.57.79.34.37.92.9,1.11,1.32.07.15.09.38.09.67,0,1.08-.07,2.61-.07,4.08v4.25c0,.69-.06,1.24-.12,1.59-.44.46-1.11.8-2.2,1.07-.04.11-.08.27-.08.37,0,.07.02.28.06.29h.4c.42,0,1.38-.06,2.01-.06.92,0,1.55.06,2.41.06h1.26c.08-.02.1-.27.1-.35s-.02-.25-.06-.33c-.73-.19-1.8-.36-2.51-1.3-.15-.31-.27-1.87-.27-2.6,0-.67-.02-1.59-.02-2.82,0-1.65.02-3.1.04-3.83.13.14.27.33.38.45l9.67,10.87c.1.1.48.12.59.12s.17,0,.25-.04c.04-.1.19-.44.19-.94,0-.61-.02-1.24-.02-1.55v-8.73c0-2.62,1.24-3.35,2.68-3.41.06-.11.08-.29.08-.4m-23.99,6.66c0,3.16-.88,5.95-2.07,6.93-.61.5-1.36.75-2.22.75-1.17,0-2.19-.46-2.78-1.4-.79-1.21-1.24-3.48-1.24-5.44,0-2.91.75-5.19,2.1-6.3.71-.58,1.44-.81,2.17-.81,1.13,0,2.22.54,2.85,1.44.79,1.09,1.19,2.66,1.19,4.83m3.79.4c0-2.93-1.29-5.17-3.72-6.51-1.3-.71-2.59-1.07-3.97-1.07-3.06,0-5.82,1.82-7.06,3.9-.8,1.3-1.21,2.72-1.21,4.22,0,2.41,1.17,4.77,2.99,6.13,1.38,1.01,2.95,1.51,4.77,1.51,1.11,0,2.16-.21,3.18-.61,1.15-.44,2.14-1.13,2.91-1.99,1.36-1.49,2.11-3.39,2.11-5.59m-18.4-2.64v-4.27c0-.31-.12-.4-.44-.4-.63,0-3.93.08-7.28.08-2.6,0-4.75-.04-5.92-.04h-1.55c-.27,0-.35.06-.35.36v4c.08.06.23.09.34.09.08,0,.38,0,.46-.05.94-1.9,1.82-2.93,2.93-3.49.63-.06,1.86-.08,2.2-.08.02.23.04.96.06,1.84.02,1.51.02,2.16.02,5.72,0,3.08-.02,4.46-.06,4.79-.08.58.02,1.03-2.49,1.14-.07.14-.07.31-.07.48,0,.08,0,.25.02.34h.81c.78,0,2.6-.08,3.35-.08.61,0,2.55.06,3.83.06h.59c.06-.1.06-.33.06-.44,0-.13-.02-.27-.08-.38-.23,0-1.57.04-2.15-.4-.07-.23-.19-.84-.19-1.57-.02-2.26-.04-3.12-.04-4.62,0-1.95.02-3.26.02-6.89.29,0,.96-.02,1.59,0,1.3.36,1.93.84,2.49,1.59.35.48.74,1.3,1.11,2.28.13.04.23.04.35.04.09,0,.36-.04.4-.08m-18.04,6.8c0-.29,0-.42-.02-.61-.11-.06-.15-.06-.31-.06-.15,0-.31,0-.46.04-.71,1.61-1.74,2.87-2.3,3.2-.31.19-.79.23-1.57.23h-1.71c-.67,0-1.2-.06-1.38-.11-.31-.06-.65-.56-.8-.9-.15-.35-.23-.35-.23-1.32v-4.58h.78c.21,0,.71.04,1.27.29.53.23.74.54.94.88.19.29.31,1.44.36,1.74.11.06.38.08.55.08s.27-.02.42-.11c0-.57-.12-2.09-.12-2.93,0-1.05.14-2.49.21-3.24-.08-.05-.21-.09-.42-.09-.15,0-.42,0-.54.06-.06.29-.29,1.17-.34,1.24-.31.53-.86.92-1.42,1.09-.38.1-.92.17-1.21.17h-.44v-1.94c0-2.01.04-2.66.06-3.04.02-.25.06-.52.09-.71.19-.02.29-.04,1.25-.04,1.21,0,1.78.02,1.97.02.59.05,1.03.17,1.34.42.8.61,1.4,1.56,2.01,2.59.13.05.33.05.44.05.13,0,.15-.05.31-.12,0-1.28-.09-2.93-.13-3.45-.02-.21-.06-.27-.48-.27-.17,0-.96-.04-1.8-.04-1.19,0-1.68.02-3.5.02-.98,0-3.01.02-3.87.02-1.25,0-2.32-.04-2.87-.04h-.71c-.06.08-.1.25-.1.33,0,.11.04.34.1.42.25.08,1.24.06,1.53.23.29.25.56.36.75,1.36.04.44.06,1.65.06,2.61v4.31c0,.88-.02,2.16-.04,2.68-.04.82-.33,1.8-.46,1.99-.19.14-1.05.27-1.88.31-.06.13-.11.34-.11.46s.04.27.11.38h.69c.67,0,3.14-.06,3.71-.06.52,0,1.53.04,2.74.04.67,0,2.64.12,6.87.12.17,0,.36.02.56-.04.06-.11.06-.15.09-.34.04-.42.04-1.65.04-3.35m-17.71.73c-.06-.19-.23-.5-.71-.5-.04,0-.1.02-.14.02-1.26,1.78-2.64,2.45-4.21,2.45-2.17,0-3.72-1.47-4.23-2.76-.27-.69-.65-2.2-.65-3.81,0-1.53.23-2.76.63-3.66.92-2.43,2.26-3.18,3.89-3.18,1.36,0,2.49.78,3.35,1.88.36.48.73,1.42,1.06,2.53.09.02.27.06.46.06.13,0,.42-.1.5-.19-.02-.23-.23-1.84-.23-2.35,0-.63.17-1.65.17-2.05-.13-.12-.55-.21-.82-.23-.31.23-.42.5-.71.86-1.18-.84-2.26-1.49-4.65-1.49-2.2,0-3.94.75-5.25,2.07-1.44,1.42-2.24,3.39-2.24,5.9,0,2.68,1.13,4.88,2.95,6.26,1.15.83,2.85,1.4,4.88,1.4,2.55,0,4.42-.96,5.36-2.24.38-.51.42-.63.59-.99m-16.29-11.95c0-.08-.02-.23-.06-.29h-.48c-1.05,0-1.72.04-3.6.04-.64,0-1.61-.04-1.84-.04h-.54c-.06.04-.09.27-.09.36,0,.11.02.27.11.36.33.11,1.61.25,2.15.6.38.44.54,1.32.61,2.14.02.31.05.63.05,1.48v4.37c0,.5-.02.67-.05.9-.35-.4-.86-1.15-1.69-2.09l-6.98-7.75c-.06-.08-.19-.19-.31-.27-.17,0-.46-.02-.63-.02-1.34,0-3.77-.06-4.13-.06-.04.08-.08.21-.08.29,0,.04.04.34.06.4.31.08,1.01.19,1.57.79.34.37.92.9,1.11,1.32.06.15.08.38.08.67,0,1.08-.06,2.61-.06,4.08v4.25c0,.69-.06,1.24-.12,1.59-.44.46-1.11.8-2.2,1.07-.04.11-.08.27-.08.37,0,.07.02.28.06.29h.4c.42,0,1.38-.06,2.01-.06.92,0,1.55.06,2.41.06h1.25c.08-.02.1-.27.1-.35s-.02-.25-.06-.33c-.73-.19-1.79-.36-2.5-1.3-.15-.31-.27-1.87-.27-2.6,0-.67-.03-1.59-.03-2.82,0-1.65.03-3.1.04-3.83.12.14.27.33.38.45l9.66,10.87c.11.1.48.12.59.12s.17,0,.25-.04c.04-.1.19-.44.19-.94,0-.61-.02-1.24-.02-1.55v-8.73c0-2.62,1.24-3.35,2.68-3.41.06-.11.09-.29.09-.4m-20.69,14.51c0-.11-.02-.33-.06-.42-.31-.02-1.17-.11-1.55-.19-.34-.4-.57-.86-.71-1.61-.02-1.01-.04-3.08-.04-5.03v-5.15c0-.56.23-1,.38-1.13.4-.37,1.19-.45,1.86-.54.04-.08.06-.31.06-.4,0-.13-.06-.29-.1-.33h-.61c-.88,0-2.93.1-3.64.1-.44,0-2.49-.06-3.41-.08h-.46c-.06.08-.1.16-.1.35,0,.09.02.3.04.4,1.03.09,1.49.19,1.63.3.25.19.6.65.69,1.78.02.4.04,1.26.06,3.18.02,1.05.04,2.51.04,3.73,0,.61-.04,1.97-.06,2.7-.04.5-.15.99-.29,1.26-.25.21-.5.58-2.03.69-.04.08-.07.36-.07.44,0,.17.04.25.04.35h.35c.84,0,2.93-.11,4.02-.11.32,0,2.49.06,3.18.06h.69c.06-.1.08-.27.08-.35m-16.78-10.92c0,1.3-.88,2.78-1.91,3.03-.42.11-.94.17-1.71.17-.21,0-.53,0-.78-.05l-.02-1.78v-3.85c0-.25.06-.4.13-.46.06-.06.44-.12.88-.12,1.63,0,2.34.14,2.93,1.12.33.57.48,1.21.48,1.93m6.07,10.95c0-.11-.04-.36-.1-.44-.21,0-1.07-.04-1.38-.28-.1-.12-.27-.38-.36-.52-.27-.96-.58-1.61-.9-2.4-.44-1.05-1.05-2.03-1.55-2.5-.19-.16-.84-.44-1.57-.69-.33-.12-.6-.23-.86-.33.31-.06.46-.09.86-.12,1.55-.19,1.91-.46,2.3-.78.84-.63,1.3-1.59,1.3-2.72,0-1.7-1.09-3.32-2.62-3.81-.5-.15-1.4-.23-2.51-.23-1.57,0-3.77.15-4.81.15-.31,0-2.14-.04-2.87-.04-.31,0-1.11-.04-1.23-.04-.07.15-.1.31-.1.4,0,.08.02.29.04.38.36.04,1.01.12,1.34.19.5.38.67.67.88,1.13.11.67.12,2.38.12,5.34,0,2.13.02,4.61-.08,5.4-.06.52-.25,1.14-.86,1.4-.27.05-.78.13-1.19.15-.07.11-.11.31-.11.42,0,.07.04.23.08.34.3,0,3.5-.06,4.16-.06,1.34,0,2.47.06,3.66.06.04-.08.08-.23.08-.32,0-.14-.04-.35-.08-.44-.42-.04-.94-.16-1.17-.21-.52-.25-.9-.75-.9-1.49l-.02-4.83c.17-.03.38-.03.54-.03.27,0,.59.05,1.11.34.77.44,1.15.76,1.65,1.53.67,1.05,1.11,2.97,1.32,4.5.06.44.23.82.63.86.17.02,1.28.06,2.07.06h2.99c.08-.09.12-.25.12-.36m-22.73-10.85c0,1.07-.38,2.01-1.07,2.62-.44.36-1.13.57-2.18.57-.44,0-.78-.02-.9-.04-.17-.02-.28-.04-.28-.15l.03-6.13c.25-.02.6-.11,1.21-.11,1.42,0,2.3.36,2.72,1.24.29.56.46,1.27.46,2m3.74.09c0-1.57-.9-3.04-2.24-3.64-.69-.3-1.9-.48-3.75-.48-1.61,0-4.13.12-5.23.12-.78,0-1.95-.09-2.59-.09-.07.11-.11.25-.11.34s0,.31.06.42c.4.13,1.05.23,1.47.34.35.31.44.59.56,1.19.06.73.11,1.66.11,3.24,0,4.42-.02,6.74-.08,7.24-.08.63-.5,1.28-1.2,1.49-.31.06-.78.17-1.21.21-.02.11-.04.25-.04.44,0,.17.03.19.06.3.67,0,2.64-.09,3.39-.09,1.86,0,3.77.09,4.54.09h.53c.06-.09.06-.23.06-.33,0-.13,0-.3-.04-.38-.63-.08-1.57-.21-1.97-.67-.21-.25-.42-.61-.42-1.23l-.06-4.61c1.26.08,2.6.12,3.33.12.96,0,1.78-.16,2.43-.37,1.49-.56,2.41-2.03,2.41-3.64"/>
    <path class="cls-5" d="m155.64,189.42c0-.13-.09-.17-.13-.25-.86,0-1.99.06-2.43.06-1.06,0-2.36-.09-2.93-.09-.06.13-.08.15-.08.25s.02.19.04.25c.61.12,1.49.27,1.65.57.15.27.19.48.19.81,0,.25-.02.5-.13.78-.19.52-.59,1.34-1.15,2.49-.97,1.94-1.57,3.16-1.91,3.64-.54-.92-1.75-3.34-2.05-3.97l-1.17-2.56c-.04-.08-.08-.38-.08-.57,0-.27.04-.46.08-.54.19-.38.84-.42,1.72-.53.04-.1.06-.23.06-.31,0-.14-.06-.1-.13-.21h-.37c-1.4,0-.99.06-3.39.06-1.02,0-2.26-.06-2.43-.06-.08.15-.13.17-.13.31,0,.08.02.15.09.26,1.4.33,1.82.58,1.97.86l3.66,7.18c.36.67.56,1.19.67,1.57.14.59.17,1.44.17,2.51,0,.91-.31,1.38-.67,1.62-.15.08-1.2.23-1.68.27-.08.15-.11.19-.11.29s.05.17.06.25c1.07,0,2.18-.03,2.8-.03.44,0,1.11.03,2.35.05.71.02,1.25.04,1.63.04.04-.09.11-.17.11-.27s-.03-.17-.09-.27c-.67-.08-1.61-.21-1.82-.42-.34-.36-.5-.52-.54-1.34l-.17-3.14c-.02-.23.06-.43.08-.5.06-.23.15-.42.23-.59l3.23-6.38c.29-.54.92-1.15,1.34-1.4.3-.19.95-.31,1.36-.42.05-.11.09-.18.09-.27m-16.91,4.31v-4.06c0-.31-.12-.39-.44-.39-.63,0-3.52.08-6.87.08-2.59,0-4.33-.04-5.5-.04h-1.55c-.27,0-.36.06-.36.35v3.79c.09.07.15.08.25.08.09,0,.17,0,.25-.04.82-1.82,1.24-2.78,2.64-3.5.63-.06,2.82-.08,3.16-.08.02.23.04.96.06,1.84.02,1.51.02,2.32.02,5.88,0,3.07-.02,4.66-.06,5-.08.59.02,1.03-2.49,1.13-.06.14-.06.19-.06.36,0,.08,0,.17.02.25h.82c.77,0,1.8-.08,2.55-.08.61,0,1.76.06,3.03.06h.59c.06-.11.06-.21.06-.31,0-.13-.02-.19-.08-.3-.23,0-1.57.04-2.16-.4-.07-.23-.19-.83-.19-1.56-.02-2.26-.04-3.33-.04-4.84,0-1.94.03-3.43.03-7.05.29,0,1.84-.02,2.47,0,1.29.35,1.8.83,2.36,1.59.5.67.63,1.28.94,2.28.13.05.19.05.31.05.08,0,.19-.05.23-.08m-17.39,10.34c0-.1-.02-.21-.06-.29-.31-.02-1.17-.11-1.55-.19-.33-.4-.56-.86-.71-1.61-.02-1-.04-3.29-.04-5.24v-5.31c0-.57.23-1.01.37-1.13.4-.38,1.19-.46,1.86-.55.04-.08.07-.19.07-.27,0-.13-.07-.21-.11-.25h-.61c-.88,0-2.13.1-2.85.1-.44,0-1.69-.06-2.62-.08h-.46c-.06.08-.1.08-.1.27,0,.09.02.17.04.27,1.03.08,1.49.19,1.63.29.25.19.61.65.69,1.78.02.4.04,1.47.06,3.39.02,1.04.04,2.47.04,3.68,0,.61-.04,2.18-.06,2.91-.04.5-.14.99-.29,1.25-.25.21-.5.59-2.03.69-.04.08-.06.23-.06.31,0,.17.04.17.04.27h.36c.84,0,2.13-.1,3.22-.1.31,0,1.69.06,2.39.06h.69c.06-.1.09-.18.09-.27m-10.34-3.85c0-1.68-.75-2.82-2.37-3.68-.44-.25-1.21-.53-2.32-.84-1.28-.35-2.35-.77-3.04-1.15-.46-.25-1.24-.94-1.24-2.28s1.36-2.45,2.95-2.45c1.26,0,2.26.63,2.87,1.46.52.74.71,1.07,1.3,2.39.07.02.15.05.21.05.19,0,.36-.11.46-.21-.06-.53-.17-1.26-.17-1.89,0-.54.13-1.25.19-1.63-.17-.25-.36-.29-.63-.29-.29.19-.57.48-.82.76-1.38-1.11-2.51-1.3-3.56-1.3-2.57,0-4.42,1.72-4.42,4,0,.78.27,1.53.77,2.3.46.65,1.13,1.15,2.03,1.53.61.25,3.33,1.07,3.7,1.21,1.68.65,2.31,1.21,2.31,2.7,0,.74-.31,1.38-.92,2.12-.54.67-1.4.99-2.32.99-.99,0-2.68-.42-3.52-1.55-.5-.65-1.21-2.01-1.42-2.83q-.15-.04-.29-.04c-.13,0-.27.04-.4.12,0,.27.09,1.65.09,2.07,0,1.02-.19,1.53-.23,1.87.06.21.42.42.67.42.43-.38.89-.67,1.05-.67.12,0,.31.06.5.19,1.36.88,2.49,1.05,3.5,1.05,2.95,0,5.06-1.49,5.06-4.39m-18.52-7.22c0,1.34-1.07,2.85-2.3,3.12-.51.11-1.24.17-2.18.17-.25,0-.96,0-1.27-.05l-.02-1.84v-3.96c0-.28.06-.42.14-.48.09-.06.94-.13,1.47-.13,1.97,0,2.87.19,3.58,1.21.4.56.59,1.22.59,1.95m4.39,11.09c0-.1-.04-.23-.11-.31-.21,0-1.06-.04-1.38-.28-.1-.12-.27-.37-.36-.52-.27-.96-.56-1.82-.88-2.61-.44-1.05-1.05-2.03-1.55-2.49-.19-.17-.78-.44-1.51-.69-.33-.13-.61-.23-.86-.34.31-.06.46-.08.86-.13,1.36-.17,1.82-.46,2.22-.77.84-.62,1.38-1.57,1.38-2.7,0-1.69-1.09-3.31-2.62-3.79-.5-.14-1.4-.23-2.51-.23-1.57,0-2.74.14-3.79.14-.31,0-1.34-.04-2.07-.04-.31,0-1.11-.04-1.24-.04-.06.14-.1.19-.1.27,0,.08.02.21.04.29.35.04,1,.13,1.34.19.5.38.67.67.88,1.13.1.67.13,2.55.13,5.5,0,2.13.02,4.81-.08,5.61-.06.52-.25,1.15-.86,1.4-.27.05-.77.13-1.19.15-.06.1-.11.18-.11.29,0,.07.04.15.08.25.29,0,2.7-.06,3.37-.06,1.34,0,1.67.06,2.87.06.04-.08.09-.15.09-.23,0-.15-.04-.23-.09-.31-.42-.04-.94-.17-1.17-.21-.52-.25-.9-.76-.9-1.49l-.02-5.23c.17-.02.77-.02.94-.02.56,0,1.13.05,1.68.3.8.35,1.55.92,2.05,1.69.67,1.05,1.11,3.04,1.32,4.56.06.44.23.82.63.86.17.02.42.06,1.22.06h2.18c.09-.08.13-.17.13-.28m-17.56-3.18c0-.29,0-.42-.02-.61-.11-.07-.14-.07-.31-.07-.15,0-.13,0-.27.05-.46,1.53-1.25,2.66-2.16,3.2-.31.19-.88.23-1.78.23h-2.34c-.73-.02-1.19-.06-1.38-.11-.31-.06-.65-.56-.79-.9-.15-.36-.23-.48-.23-1.44v-4.77h.67c.67,0,1.21.05,1.78.3.53.23.92.56,1.13.9.19.3.25,1.45.3,1.74.1.06.17.08.33.08s.19-.02.34-.1c0-.56-.12-2.09-.12-2.93,0-1.05.15-2.33.21-3.08-.08-.04-.12-.08-.33-.08-.15,0-.21,0-.34.06-.06.3-.23,1.18-.27,1.24-.32.52-1.05.94-1.61,1.11-.38.1-.92.17-1.72.17h-.34v-2.05c0-2.01.04-2.82.06-3.2.02-.25.07-.52.09-.71.19-.02.8-.04,1.76-.04,1.21,0,2.11.02,2.3.02.59.04,1.02.17,1.34.42,1.02.79,1.3,1.32,1.86,2.6.13.04.14.04.25.04.13,0,.15-.04.31-.12,0-1.28-.08-2.72-.13-3.25-.02-.21-.06-.27-.48-.27-.17,0-.96-.04-1.8-.04-1.2,0-1.68.02-3.5.02-.98,0-2.72.02-3.58.02-1.25,0-1.53-.04-2.07-.04h-.72c-.07.08-.11.16-.11.25,0,.11.04.21.11.3.25.08,1.24.06,1.54.23.29.26.56.31.75,1.32.04.44.06,1.86.06,2.83v4.31c0,.88-.02,2.33-.04,2.85-.04.82-.34,1.85-.46,2.03-.19.15-1.05.27-1.89.31-.07.13-.11.21-.11.34s.05.19.11.29h.69c.68,0,2.35-.06,2.91-.06.52,0,1.24.04,2.45.04.67,0,2.64.13,6.87.13.17,0,.35.02.56-.04.06-.1.06-.15.08-.33.04-.42.04-1.45.04-3.14m-15.5-11.42c0-.09-.02-.21-.11-.24h-.71c-.5,0-1.3.04-1.65.04-1.7,0-2.3-.11-2.56-.11h-.38c-.04.11-.11.17-.11.27,0,.08.04.15.04.23.52.06.98.17,1.44.31.25.25.52.76.52,1.32,0,.2-.21,1.19-.51,1.9l-3.37,8.29-4.13-10.49c.06-.5.33-.98.69-1.17.35-.04.79-.17,1.36-.17.04-.08.08-.2.08-.29s-.02-.21-.11-.23h-.53c-.64,0-1.62.08-2.73.08-.48,0-1.42-.04-2.35-.04h-.81c-.04.08-.08.13-.08.25s.02.17.06.25c.59.14,1.15.37,1.76.71.4.59,1.25,2.7,1.72,3.81l1.73,4.19c1.44,3.48,2.3,5.8,2.4,6.19.11.07,0,.12.19.12s.17-.04.21-.14l5.4-12.98c.19-.46.48-.9.75-1.19.33-.38,1.03-.52,1.67-.67.02-.08.09-.17.09-.27m-18.33,14.58c0-.1-.02-.21-.06-.29-.31-.02-1.17-.11-1.55-.19-.33-.4-.56-.86-.71-1.61-.02-1-.04-3.29-.04-5.24v-5.31c0-.57.23-1.01.38-1.13.4-.38,1.19-.46,1.86-.55.04-.08.06-.19.06-.27,0-.13-.06-.21-.11-.25h-.6c-.88,0-2.14.1-2.85.1-.44,0-1.7-.06-2.61-.08h-.46c-.06.08-.11.08-.11.27,0,.09.02.17.04.27,1.02.08,1.48.19,1.63.29.25.19.61.65.69,1.78.02.4.04,1.47.06,3.39.02,1.04.04,2.47.04,3.68,0,.61-.04,2.18-.06,2.91-.04.5-.15.99-.3,1.25-.25.21-.5.59-2.03.69-.04.08-.06.23-.06.31,0,.17.04.17.04.27h.35c.84,0,2.14-.1,3.22-.1.31,0,1.7.06,2.39.06h.69c.07-.1.08-.18.08-.27m-9.46-14.63c0-.08-.02-.14-.06-.2h-.48c-1.05,0-1.51.04-3.39.04-.65,0-1.61-.04-1.84-.04h-.55c-.06.04-.08.19-.08.27,0,.1.02.14.1.23.33.11,1.61.25,2.16.61.38.44.54,1.32.61,2.14.02.31.04.63.04,1.49v6.22c0,.5-.02.67-.04.9-.36-.4-.96-1.18-1.78-2.14l-8-9.33c-.06-.09-.19-.19-.31-.27-.16,0-.37-.02-.54-.02-1.34,0-2.51-.06-2.87-.06-.04.08-.06.12-.06.21,0,.05.02.21.04.27.32.09,1.24.19,1.62.59.33.37.83.81,1.02,1.24.06.14.09.37.09.67,0,1.09-.06,3.07-.06,4.54v4.46c0,.69-.06,1.23-.13,1.59-.44.46-1.11.79-2.2,1.07-.04.1-.08.14-.08.25,0,.07.02.19.06.2h.4c.42,0,1.38-.06,2.01-.06.91,0,1.34.06,2.19.06h1.26c.08-.02.1-.18.1-.27s-.02-.13-.06-.21c-.73-.19-1.8-.36-2.51-1.3-.15-.31-.28-1.9-.28-2.64,0-.67-.02-1.76-.02-2.99,0-1.65.02-3.94.04-4.67.12.14.31.37.46.54l9.92,11.62c.1.1.15.12.25.12s.04,0,.12-.04c.04-.11.11-.44.11-.94,0-.61-.02-1.24-.02-1.55v-8.89c0-2.62,1.24-3.35,2.68-3.41.06-.11.08-.17.08-.28m-19.38.11c0-.08-.04-.21-.1-.27h-.61c-.65,0-1.53.04-2.28.04-.83,0-1.78-.04-2.39-.04h-.75c-.06.13-.09.16-.09.27,0,.09.02.17.06.28.09,0,1.61.02,1.88.4.23.31.73,1.08.82,1.55.04.21.17,1.07.17,2.3,0,1.78,0,2.97-.02,3.6-.04,1.18-.17,2.1-.38,2.78-.59,1.82-1.94,2.72-4.1,2.72-.92,0-1.72-.19-2.45-.52-1.36-.67-2.01-1.94-2.03-2.64l-.11-6.28-.02-2.55c0-.49.6-.93.81-1.18.17-.08,1.09-.17,1.62-.21.06-.13.1-.19.1-.29s-.06-.21-.15-.27l-.79.02c-.78.02-1.8.04-2.45.04-1.01,0-1.78-.02-2.41-.02H.11c-.09.06-.11.19-.11.29s.02.19.08.26c.67.08,1.11.14,1.4.2.36.21.61.56.73.92.02.28.06.94.06,2.26v5.03c0,1.3.07,2.21.21,2.8.27,1.09.86,1.95,1.82,2.57,1.02.67,2.3,1.01,3.83,1.01,1.4,0,2.59-.29,3.6-.86,1.05-.57,1.7-1.49,2.07-2.78.21-.77.34-1.61.34-2.49v-4.02c0-.75.04-1.69.04-2.07.02-1.13.31-1.8.63-2.3.33-.1.63-.16,1.73-.29.04-.08.08-.15.08-.25"/>
  </g>
</svg>