<?xml version="1.0" encoding="UTF-8"?>
<svg id="Layer_1" data-name="Layer 1" xmlns="http://www.w3.org/2000/svg" xmlns:xlink="http://www.w3.org/1999/xlink" viewBox="0 0 191.02 213.65">
  <defs>
    <style>
      .cls-1 {
        isolation: isolate;
      }

      .cls-2 {
        fill: none;
      }

      .cls-2, .cls-3, .cls-4, .cls-5 {
        stroke-width: 0px;
      }

      .cls-6 {
        clip-path: url(#clippath-1);
      }

      .cls-3 {
        fill: #fff;
      }

      .cls-7 {
        clip-path: url(#clippath);
      }

      .cls-4 {
        fill: #ef7b10;
      }

      .cls-5 {
        fill: #1d1d1b;
      }
    </style>
    <clipPath id="clippath">
      <rect class="cls-2" x="67.58" y="26.5" width="54" height="31.85"/>
    </clipPath>
    <clipPath id="clippath-1">
      <rect class="cls-2" x="67.58" y="26.5" width="54" height="31.85"/>
    </clipPath>
  </defs>
  <path class="cls-4" d="m67.52,121.11c7.76,9.81,16.83,18.67,27.04,26.3,10.1-7.53,19.22-16.33,27.08-26.22l-27.1-26.35-27.02,26.28Z"/>
  <path class="cls-4" d="m54.91,102.26l39.65-38.09,39.73,38.19c6.6-11.73,11.61-24.56,14.69-38.28.14-.65.25-1.3.39-1.94H39.79c2.96,14.12,8.1,27.63,15.12,40.12"/>
  <path class="cls-4" d="m54.89,102.26c3.7,6.59,7.92,12.89,12.63,18.85l27.02-26.28,27.1,26.35c4.68-5.9,8.91-12.18,12.63-18.82l-39.73-38.19-39.65,38.09Z"/>
  <path class="cls-5" d="m121.52,119.32l-26.1-25.39-.88-.84-.87.84-26.03,25.33c-4.13-5.36-7.9-10.99-11.2-16.76l38.1-36.58,38.17,36.69c-3.33,5.83-7.09,11.44-11.19,16.72"/>
  <path class="cls-5" d="m94.54,64.18l39.73,38.19c-3.72,6.63-7.95,12.91-12.63,18.81l-27.1-26.35-27.02,26.29c-4.72-5.96-8.94-12.26-12.63-18.85l39.65-38.08m0,3.45l-36.53,35.08c2.92,5.05,6.2,9.98,9.78,14.68l25.02-24.35,1.74-1.69,1.74,1.69,25.11,24.41c3.55-4.66,6.82-9.57,9.77-14.64l-36.61-35.19Z"/>
  <path class="cls-5" d="m151.84,21.52c-4.66,1.41-9.6,2.18-14.75,2.18-18.13,0-33.97-9.52-42.51-23.71-8.56,14.18-24.39,23.71-42.52,23.71-5.13,0-10.08-.77-14.73-2.17-1.21,13.84-.33,27.49,2.42,40.63h109.59c2.87-13.7,3.64-27.35,2.5-40.64"/>
  <g class="cls-1">
    <g class="cls-7">
      <g class="cls-6">
        <path class="cls-3" d="m121.58,38.29v-4.66h-2.85v-3.28l-2.98-.84h-.22v-2.79s-1.03,1.24-5.75,1.24-7.1-1.45-10.66-1.45-4.47,1.95-4.47,1.95v1.13h-.12v-1.13s-1.06-1.95-4.47-1.95-6.18,1.45-10.66,1.45c-4.72,0-5.54-1.23-5.54-1.23v2.93h-.19l-3.23.68v3.28h-2.87v4.66h2.87v7.53h-2.87v4.67h2.87v5.79s4.79.74,9.22.74c5.24,0,8.26-.75,11.67-.82v1.47s1.37.67,3.2.67,3.31-.67,3.31-.67v-1.47c3.4.07,6.42.82,11.69.82,4.41,0,9.21-.74,9.21-.74v-5.79h2.85v-4.67h-2.85v-7.53h2.85Z"/>
      </g>
    </g>
  </g>
  <path class="cls-5" d="m115.98,29.2v-3.57s-.86.91-.86.91c0,.01-1.07,1.07-5.39,1.07l-5.85-.78-4.81-.67c-2.64,0-3.95,1.08-4.54,1.73-.57-.65-1.9-1.73-4.53-1.73l-4.8.68-5.85.77c-4.25,0-5.14-1.02-5.14-1.02l-.88-1.08v1.38s-.01,2.45-.01,2.45l-3.47.73v26.78l.42.06c.05.01,4.88.75,9.3.75s9.54-.57,11.17-.76v1.21l.27.14c.06.03,1.5.73,3.43.73s3.46-.7,3.52-.73l.29-.14v-1.22c1.63.19,6.81.76,11.19.76s9.25-.74,9.29-.75l.42-.06v-26.75l-3.18-.89Zm-20.94-.34c.04-.06.99-1.7,4.04-1.7l4.6.65,6.06.8c2.94,0,4.43-.46,5.26-.85v25.31c-.06-.12-1.25.78-5.26.78l-5.85-.78-4.81-.67c-2.08,0-3.31.67-4.04,1.27v-24.8Zm-20.73-1.06c.8.4,2.23.82,5.05.82l6.06-.8,4.59-.66c3.03,0,3.98,1.62,4.04,1.7v24.81c-.74-.61-1.97-1.28-4.08-1.28l-4.8.67-5.81.77c-4.25,0-5.14-1.02-5.14-1.04,0,0,.09-23.32.1-25.01m43.85,28.18c-1.22.18-5.1.69-8.72.69-5.18,0-11.56-.81-11.62-.82l-.56-.09v1.71c-.49.18-1.56.52-2.81.52s-2.24-.34-2.71-.5v-1.72l-.55.09c-.07,0-6.46.82-11.61.82-3.63,0-7.51-.51-8.73-.69v-25.1c.45-.09,1.81-.39,2.48-.52v22.73c.24.53,1.28,1.74,6.04,1.74l6.02-.78,4.6-.67c3.08,0,4.04,1.63,4.08,1.71l.14-.09h.71l.13.09c.04-.08.99-1.71,4.04-1.71l4.6.65,6.06.8c4.82,0,6.02-1.26,6.14-1.41l.09-23.17c.63.17,1.79.49,2.19.62v25.12Z"/>
  <path class="cls-5" d="m81.37,32.26c-.39.03-.64.24-.76.5l-1.6,3.55s-.08.06-.12.06c-.05,0-.12-.06-.15-.17-.04-.12-.24-.62-.65-1.6l-.52-1.15c-.18-.43-.33-.71-.38-.8-.18-.32-.41-.35-.67-.39-.03-.04-.03-.08-.03-.1,0-.04,0-.06.02-.12h.26c.3,0,.55.03.78.03.26,0,.69-.04.99-.04h.17s.04.08.04.1c0,.02,0,.09-.02.11-.19.03-.63.01-.63.29,0,.06,0,.17.04.24l1.05,2.49.88-2.06c.11-.24.12-.44.12-.55,0-.24-.17-.34-.6-.39-.01-.03-.03-.07-.03-.1,0-.03.02-.09.03-.12h.12c.19,0,.39.04.83.04.08,0,.38-.03.52-.03h.31c.02.05.04.07.04.11,0,.03-.02.08-.04.11"/>
  <path class="cls-5" d="m85.81,36.23c-1.27,0-1.96-.03-2.14-.03-.13,0-.45,0-.6,0-.17,0-.58.03-1.03.03h-.26s-.02-.06-.02-.1c0-.03,0-.08,0-.12.35-.02.59-.08.65-.13.07-.09.12-.26.14-.64,0-.19,0-.4,0-.63,0-.32,0-.72,0-1.17v-.67c-.01-.46-.24-.46-.72-.52,0-.04-.02-.07-.02-.1,0-.03.01-.1.04-.11h.23c.16,0,.58.01,1.37.01.73,0,1.43,0,1.6,0,.09,0,.38.02.43.02.1,0,.14,0,.14.09l.06.95c-.06.04-.07.05-.12.05-.04,0-.07,0-.09-.01-.29-.48-.42-.58-.64-.74-.08-.05-.19-.09-.37-.1-.06,0-.2-.01-.56-.01-.29,0-.44.01-.48.01-.04,0-.04,0-.06.17,0,.09-.02.29-.02.84v.54h.15c.18,0,.37-.01.48-.04.16-.04.34-.15.43-.3.04-.05.08-.28.1-.35.02-.02.07-.03.13-.03.04,0,.08,0,.11.03-.01.17-.04.49-.04.9,0,.21.02.66.02.83-.04.03-.06.03-.12.03-.03,0-.09,0-.12,0-.03-.36-.09-.61-.4-.72-.17-.07-.3-.09-.47-.09-.08,0-.19,0-.27.02v1.1c0,.26.02.41.06.5.03.07.13.21.25.23.06.01.17.03.39.03h.61c.15,0,.37-.02.45-.06.15-.1.54-.52.67-.9.06-.03.09-.03.13-.03.03,0,.07.01.12.03v1.11c0,.1-.07.11-.22.11"/>
  <path class="cls-5" d="m90.86,33.36s-.07-.01-.12-.01c-.1-.26-.21-.5-.31-.62-.17-.22-.34-.36-.78-.41-.1-.01-.33-.01-.41-.01v1.86c0,.29,0,.63,0,1.27.01.49.22.49.73.56.03.05.04.09.04.12,0,.04,0,.06-.03.11h-.18c-.29,0-.88-.02-1.06-.02-.13,0-.77.03-1.07.03-.03-.05-.03-.05-.03-.11,0-.02,0-.07.02-.11.68-.05.74-.17.76-.39.02-.13.02-.69.02-1.25v-1.53c0-.2-.02-.4-.04-.52-.13,0-.54,0-.65.05-.34.12-.59.4-.85.92-.03,0-.08,0-.1,0-.04,0-.08,0-.1-.03v-1.08c0-.09,0-.12.12-.12.1,0,.26.01.46.01.15,0,.77,0,1.53,0,1.01,0,1.76-.03,1.95-.03.1,0,.17,0,.21.04.01.02,0,.09,0,.15v1.08s-.07.06-.1.06"/>
  <path class="cls-5" d="m81.16,39.94s-.07-.01-.13-.01c-.09-.26-.2-.5-.31-.62-.16-.22-.34-.36-.77-.4-.1-.01-.34-.01-.41-.01v1.86c-.01.29-.01.63,0,1.27,0,.49.23.49.73.56.03.04.03.09.03.11,0,.04,0,.06-.02.11h-.18c-.3,0-.89-.02-1.06-.02-.13,0-.77.03-1.08.03-.01-.05-.02-.05-.02-.11,0-.02,0-.07.01-.11.67-.06.74-.17.77-.39,0-.13,0-.69,0-1.25v-1.53c0-.2,0-.4-.03-.52-.14,0-.55,0-.67.05-.34.12-.57.4-.83.92-.04,0-.09,0-.12,0-.04,0-.07,0-.1-.03v-1.08c0-.09.02-.12.13-.12s.25.01.46.01c.16,0,.77,0,1.54,0,.99,0,1.75-.03,1.94-.03.1,0,.17,0,.21.04.01.02,0,.09,0,.15v1.08s-.07.06-.1.06"/>
  <path class="cls-5" d="m85.96,42.81c-1.26,0-1.97-.03-2.13-.03-.13,0-.45,0-.61,0s-.58.03-1.02.03h-.25s-.03-.06-.03-.1c0-.03,0-.08.02-.12.35-.03.59-.09.63-.14.08-.09.12-.26.14-.64,0-.2.02-.41.02-.64,0-.32-.01-.71-.01-1.17,0-.34,0-.53,0-.67-.01-.45-.22-.45-.7-.52-.02-.04-.03-.08-.03-.11,0-.02.02-.09.05-.11h.22c.17,0,.58.01,1.37.01.74,0,1.43,0,1.61,0,.08,0,.38.01.42.01.11,0,.15,0,.15.09l.05.95s-.07.04-.12.04c-.03,0-.06,0-.09-.01-.27-.48-.41-.57-.64-.73-.08-.05-.18-.09-.36-.1-.06,0-.2-.01-.57-.01-.29,0-.44.01-.47.01-.05,0-.05,0-.07.16,0,.1,0,.29,0,.84v.54h.13c.19,0,.38-.01.48-.04.17-.04.34-.16.43-.3.03-.05.07-.28.09-.35.04-.02.09-.03.13-.03.05,0,.09.01.11.03,0,.17-.04.49-.04.9,0,.21.03.66.03.83-.05.03-.06.03-.12.03-.04,0-.09,0-.13,0-.03-.36-.08-.61-.4-.72-.17-.07-.3-.09-.46-.09-.08,0-.2,0-.28.02v1.1c0,.25.02.4.05.49.03.07.13.21.25.23.06.01.18.03.39.03h.62c.15,0,.36-.02.44-.06.16-.1.55-.52.68-.9.05-.03.09-.03.12-.03s.08.01.12.03v1.11c0,.1-.07.11-.22.11"/>
  <path class="cls-5" d="m88.92,42.91c-.35,0-.73-.14-.97-.25-.04-.02-.12-.04-.16-.04-.04,0-.17.07-.31.17-.1,0-.22-.05-.25-.13,0-.08.08-.34.08-.51,0-.1-.03-.58-.04-.68.04-.06.11-.09.18-.09h.07c.09.18.26.64.39.82.27.3.65.44.93.44.31,0,.55-.06.68-.21.19-.19.24-.3.24-.5,0-.15-.03-.29-.12-.38-.11-.14-.2-.19-.43-.31-.19-.09-.83-.25-1.07-.38-.29-.13-.43-.25-.58-.4-.18-.22-.24-.53-.24-.77,0-.67.53-1.19,1.29-1.19.28,0,.67.04,1,.29.07-.07.16-.16.25-.24.12,0,.2.07.21.11-.01.09-.06.36-.06.57,0,.11.06.55.06.63-.04.02-.09.05-.16.05-.02,0-.05,0-.07-.01-.12-.21-.23-.55-.36-.74-.19-.26-.46-.36-.84-.36-.41,0-.75.27-.75.62s.28.51.51.62c.18.06.39.15.63.22.31.11.55.19.67.25.49.26.69.62.69,1.11,0,.78-.7,1.28-1.48,1.28"/>
  <path class="cls-5" d="m82.85,49.4c-1.28,0-1.97-.03-2.14-.03-.13,0-.45,0-.61,0-.17,0-.58.02-1.03.02h-.26s-.02-.06-.02-.1c0-.03,0-.08,0-.12.34-.02.59-.08.64-.13.07-.09.12-.26.14-.64,0-.19,0-.4,0-.63,0-.32,0-.72,0-1.17v-.67c-.01-.46-.23-.46-.71-.52,0-.04-.02-.07-.02-.11,0-.02.01-.1.04-.11h.24c.15,0,.57.01,1.37.01.73,0,1.44,0,1.6,0,.1,0,.38.01.44.01.09,0,.14,0,.14.1l.06.95c-.06.03-.07.05-.12.05-.04,0-.07,0-.09-.02-.29-.47-.42-.57-.63-.73-.08-.05-.19-.09-.37-.11-.06,0-.21-.01-.56-.01-.29,0-.44.01-.48.01-.04,0-.04,0-.06.17,0,.09-.02.29-.02.84v.54h.15c.18,0,.37-.01.48-.04.16-.04.34-.16.43-.3.04-.05.08-.28.1-.35.02-.02.08-.04.13-.04.04,0,.08.01.11.04-.01.17-.04.49-.04.9,0,.21.02.65.02.84-.05.03-.07.03-.12.03-.03,0-.09,0-.12,0-.03-.36-.1-.6-.4-.73-.17-.07-.3-.09-.47-.09-.08,0-.19,0-.27.02v1.1c0,.25.02.41.06.5.03.06.13.21.25.23.06.01.17.03.39.03h.6c.15,0,.38-.02.46-.06.15-.1.54-.52.67-.91.06-.03.09-.03.13-.03.03,0,.07.01.12.04v1.11c0,.1-.07.11-.22.11"/>
  <path class="cls-5" d="m88.98,45.41c-.43.02-.8.26-.8.93v2.16c0,.09.03.7.03.93-.07.03-.14.06-.17.06-.03,0-.07-.03-.12-.06l-2.96-3.19.03.65v1.18c.01.09.03.31.05.48.02.27.1.35.22.44.14.13.38.17.56.19.02.03.03.06.03.09,0,.01,0,.08-.04.11h-.32c-.27,0-.48,0-.76,0-.19,0-.45.02-.63.02h-.14s0-.08,0-.1c0-.02,0-.06.02-.11.21-.02.55-.12.67-.29.05-.1.07-.3.07-.5v-1.51c0-.24-.01-.37-.02-.61-.01-.19-.05-.34-.15-.45,0-.03-.1-.12-.2-.22-.09-.08-.33-.14-.47-.21-.02-.04-.03-.09-.03-.09,0-.04,0-.09.03-.12h.11c.09,0,.55.03.89.03h.2s.11.06.13.09l2.2,2.4c.17.17.38.42.5.58v-1.74c0-.22-.01-.39-.03-.48-.02-.18-.05-.34-.12-.44-.07-.12-.48-.17-.69-.22-.03-.04-.03-.09-.03-.13,0-.02,0-.04.01-.09h.13c.2,0,.54.03.74.03.5,0,.66-.02.91-.02h.17s.02.08.02.11c0,.02,0,.07-.02.1"/>
  <path class="cls-5" d="m102.83,32.23c-.42.02-.8.26-.8.94v2.15c0,.09.03.7.03.94-.06.03-.14.07-.17.07-.03,0-.05-.04-.12-.07l-2.96-3.19.04.65v1.17c0,.09.03.31.04.48.03.27.1.35.22.45.15.12.4.16.56.18.02.03.03.07.03.1,0,.01,0,.07-.03.11h-.33c-.26,0-.48,0-.76,0-.19,0-.44.02-.62.02h-.14s-.02-.08-.02-.1,0-.05.02-.11c.2-.02.54-.12.66-.29.06-.11.07-.3.07-.51v-1.5c0-.25,0-.37-.01-.61,0-.19-.06-.34-.15-.45-.02-.03-.1-.13-.21-.23-.08-.07-.33-.14-.47-.21,0-.04-.02-.09-.02-.09,0-.03.01-.09.02-.12h.11c.08,0,.54.03.89.03h.2s.11.06.13.09l2.2,2.4c.17.17.38.42.49.58v-1.74c0-.22-.02-.39-.03-.47,0-.18-.05-.34-.12-.45-.07-.11-.48-.17-.68-.22-.02-.04-.03-.09-.03-.12,0-.02,0-.05.02-.09h.13c.21,0,.53.03.73.03.5,0,.67-.02.92-.02h.16s.03.08.03.11-.01.07-.03.1"/>
  <path class="cls-5" d="m107.2,35.71c-.41.4-.97.63-1.5.63s-1.07-.21-1.47-.6c-.44-.42-.63-.98-.63-1.6s.19-1.17.63-1.59c.46-.44.97-.64,1.48-.64.36,0,.7.11,1.11.32.64.42,1.03,1.11,1.03,1.87,0,.59-.24,1.18-.65,1.61m-.68-3.07c-.21-.27-.46-.44-.83-.44-.35,0-.58.16-.78.44-.25.32-.39.83-.39,1.49s.14,1.15.37,1.46c.21.31.46.47.83.47.44,0,.7-.22.91-.58.19-.32.27-.77.27-1.35,0-.7-.13-1.18-.38-1.5"/>
  <path class="cls-5" d="m113.16,32.26c-.38.03-.63.24-.74.5l-1.6,3.55s-.08.06-.13.06-.12-.06-.15-.17c-.04-.12-.23-.62-.66-1.6l-.51-1.15c-.19-.43-.33-.71-.38-.8-.2-.32-.42-.35-.67-.39-.05-.04-.05-.08-.05-.1,0-.04,0-.06.03-.12h.26c.29,0,.54.03.77.03.26,0,.7-.04,1-.04h.16s.05.08.05.1c0,.02,0,.09-.03.11-.2.03-.63.01-.63.29,0,.06,0,.17.04.24l1.04,2.49.89-2.06c.1-.24.11-.44.11-.55,0-.24-.17-.34-.6-.39-.01-.03-.03-.07-.03-.1,0-.03.01-.09.03-.12h.12c.19,0,.39.04.83.04.07,0,.38-.03.52-.03h.31c.02.05.02.07.02.11,0,.03,0,.08-.04.11"/>
  <path class="cls-5" d="m101.46,39.94s-.07-.01-.12-.01c-.09-.26-.2-.5-.31-.62-.16-.22-.34-.36-.77-.4-.1-.01-.34-.01-.41-.01v1.86c-.01.29-.01.63,0,1.27,0,.49.23.49.74.56.03.04.03.09.03.11,0,.04,0,.06-.02.11h-.19c-.3,0-.88-.02-1.06-.02-.13,0-.77.03-1.09.03-.01-.05-.02-.05-.02-.11,0-.02,0-.07.01-.11.67-.06.74-.17.77-.39,0-.13,0-.69,0-1.25v-1.53c0-.2,0-.4-.02-.52-.13,0-.55,0-.66.05-.34.12-.57.4-.84.92-.04,0-.09,0-.11,0-.04,0-.07,0-.1-.03v-1.08c0-.09.02-.12.13-.12s.26.01.46.01c.16,0,.77,0,1.54,0,1,0,1.75-.03,1.95-.03.1,0,.17,0,.2.04.01.02,0,.09,0,.15v1.08s-.06.06-.1.06"/>
  <path class="cls-5" d="m106.49,42.82h-.33c-.21,0-.46-.03-.71-.03-.4,0-.9.03-1.1.03-.02-.03-.03-.06-.03-.12,0-.02.01-.06.02-.09.41-.02.57-.09.57-.26,0-.07,0-.2-.13-.54-.13-.31-.19-.45-.23-.53-.01-.03-.02-.04-.11-.04h-1.33c-.08.1-.19.4-.31.8-.03.11-.03.21-.03.24,0,.14.13.29.6.31.03.04.03.09.03.11,0,.04,0,.07-.01.11h-.11c-.32,0-.4-.02-.73-.02-.21,0-.73.02-.9.02-.02-.04-.03-.05-.03-.09,0-.02,0-.06.03-.1.25-.06.48-.12.6-.32.07-.09.29-.48.53-1.08.24-.56.52-1.27.65-1.56.17-.37.24-.49.29-.61.08-.19.19-.37.22-.44.04-.05.13-.08.17-.08.06,0,.15.04.18.09.04.07.08.16.1.21.24.58.43,1.1.74,1.81.15.36.23.6.4.97.12.24.18.42.3.64.16.32.41.32.66.39,0,.03.04.06.04.09,0,.04-.02.06-.04.11m-2.66-3.34h-.01c-.09.17-.24.52-.3.69-.22.54-.3.73-.34.8h1.25c-.09-.25-.42-1.02-.6-1.49"/>
  <path class="cls-5" d="m112.99,42.81l-1.71-.02h-.47s-.02-.08-.02-.11c0-.06.01-.06.04-.11.09,0,.32,0,.42-.04.18-.08.24-.25.24-.51v-3.02h0l-.89,1.97c-.1.21-.22.44-.31.68-.2.45-.31.77-.37.95-.03.07-.1.07-.13.07-.06,0-.1-.02-.13-.11-.12-.26-.2-.42-.24-.52l-1.4-3.08h-.03v.79l.03,1.96c0,.6.31.89.78.89.02.03.04.09.04.1,0,.03,0,.06-.03.1-.03,0-.13.01-.21.01-.06,0-.37-.03-.82-.03-.12,0-.39.01-.59.01h-.29s-.02-.07-.02-.11c0,0,0-.06.02-.09.12-.03.53-.12.61-.21.09-.09.17-.26.17-.69v-2.16c-.01-.34-.05-.48-.22-.59-.07-.04-.33-.07-.55-.11-.03-.04-.03-.08-.03-.11,0-.02,0-.07.03-.11.16,0,.45.02.75.02h1.02s.06.05.09.11l1.25,2.84.22-.57c.2-.46.48-1.15.88-1.88.09-.17.2-.38.26-.49l1.6-.03s.04.07.04.11,0,.06-.03.1c-.17.04-.47.04-.62.27-.05.09-.08.16-.08.5v2.03c0,.78.2.86.29.91.05.04.29.06.43.06.02.04.03.07.03.11,0,.05-.02.06-.03.1"/>
  <path class="cls-5" d="m101.36,46.53s-.07-.01-.13-.01c-.09-.26-.2-.5-.31-.62-.16-.22-.34-.35-.77-.41-.1-.01-.34-.01-.41-.01v1.86c-.01.3-.01.64,0,1.28,0,.49.23.49.73.56.03.04.03.09.03.12,0,.04,0,.06-.02.11h-.19c-.3,0-.89-.02-1.06-.02-.13,0-.76.02-1.08.02-.01-.05-.02-.05-.02-.11,0-.02,0-.07.01-.11.67-.05.74-.17.77-.39,0-.14,0-.69,0-1.25v-1.53c0-.19,0-.39-.03-.52-.13,0-.55,0-.66.06-.34.12-.57.41-.83.92-.04,0-.09,0-.12,0-.04,0-.07,0-.1-.03v-1.08c0-.09.02-.13.13-.13s.26.01.46.01c.16,0,.77.01,1.54.01.99,0,1.75-.03,1.95-.03.1,0,.17,0,.2.04.01.02,0,.09,0,.15v1.08s-.06.05-.1.05"/>
  <path class="cls-5" d="m106.58,45.43c-.38.03-.63.24-.75.5l-1.6,3.54s-.07.06-.13.06c-.05,0-.12-.06-.15-.17-.04-.13-.23-.62-.66-1.6l-.51-1.15c-.18-.43-.32-.71-.37-.8-.2-.32-.42-.36-.67-.39-.04-.04-.04-.07-.04-.1,0-.04,0-.07.03-.12h.26c.3,0,.54.03.77.03.26,0,.69-.03,1-.03h.16s.05.07.05.1c0,.03,0,.09-.03.11-.2.03-.63.01-.63.29,0,.05,0,.17.04.24l1.04,2.49.89-2.06c.1-.24.11-.44.11-.55,0-.24-.17-.34-.6-.39-.01-.03-.02-.07-.02-.1s.01-.09.02-.12h.12c.19,0,.39.03.84.03.07,0,.38-.03.52-.03h.31s.03.06.03.11c0,.02,0,.08-.04.11"/>
  <path class="cls-5" d="m113.08,49.4l-1.69-.02h-.48s-.02-.08-.02-.11c0-.06,0-.07.02-.11.1,0,.32,0,.43-.04.16-.07.23-.25.23-.5v-2.44s.01-.45.01-.58h-.02l-.88,1.96c-.11.22-.22.45-.33.68-.2.45-.31.77-.37.95-.02.08-.09.08-.13.08-.05,0-.09-.02-.13-.12-.11-.26-.19-.42-.22-.52l-1.41-3.08h-.03v.78l.03,1.96c.02.6.31.88.8.88.02.03.03.09.03.11,0,.02,0,.06-.02.1-.04,0-.12.01-.22.01-.06,0-.36-.03-.8-.03-.13,0-.4.01-.6.01h-.28s-.03-.07-.03-.11c0,0,.01-.06.03-.09.11-.02.52-.12.61-.2.08-.09.16-.26.16-.69v-.99s0-1.17,0-1.17c-.01-.34-.04-.48-.22-.59-.07-.05-.33-.08-.55-.11-.03-.04-.04-.08-.04-.11,0-.02.01-.07.04-.12.15,0,.46.02.74.02h1.03s.05.06.08.11l1.25,2.84.23-.57c.19-.45.48-1.15.87-1.88.08-.16.19-.37.26-.49l1.58-.03s.05.08.05.11-.02.06-.04.1c-.16.03-.47.03-.61.27-.05.08-.1.16-.1.5v2.03c0,.78.2.86.3.91.04.03.29.06.42.06.03.04.04.08.04.12,0,.05-.02.06-.04.1"/>
  <g>
    <path class="cls-5" d="m190.6,166.19c0-.1-.02-.28-.08-.36h-.59c-1.29,0-2.1.05-4.42.05-.8,0-1.98-.05-2.26-.05h-.67c-.08.05-.11.33-.11.44,0,.13.02.33.13.44.41.13,1.98.3,2.64.74.47.54.67,1.62.75,2.62.02.38.05.77.05,1.82v5.37c0,.62-.02.82-.05,1.11-.44-.49-1.05-1.41-2.08-2.57l-8.58-9.51c-.08-.1-.23-.23-.39-.33-.2,0-.56-.03-.77-.03-1.65,0-4.63-.07-5.06-.07-.06.1-.11.25-.11.36,0,.05.05.41.07.49.39.1,1.23.23,1.93.97.41.46,1.13,1.1,1.36,1.62.08.19.11.46.11.82,0,1.33-.08,3.21-.08,5v5.22c0,.85-.07,1.52-.15,1.95-.54.57-1.36.98-2.7,1.31-.05.13-.1.33-.1.46,0,.08.02.34.08.36h.49c.51,0,1.69-.08,2.46-.08,1.13,0,1.9.08,2.95.08h1.55c.1-.02.12-.33.12-.43s-.02-.31-.08-.41c-.9-.23-2.21-.44-3.08-1.59-.18-.39-.33-2.29-.33-3.19,0-.82-.03-1.95-.03-3.47,0-2.03.03-3.8.05-4.7.16.18.33.41.46.56l11.87,13.34c.13.13.59.15.72.15s.2,0,.31-.05c.05-.13.23-.54.23-1.15,0-.75-.03-1.52-.03-1.9v-10.71c0-3.21,1.52-4.11,3.29-4.19.08-.13.1-.36.1-.49m-29.44,8.17c0,3.88-1.08,7.3-2.54,8.51-.75.62-1.67.93-2.73.93-1.44,0-2.69-.57-3.41-1.72-.97-1.49-1.52-4.27-1.52-6.68,0-3.57.92-6.37,2.57-7.74.87-.72,1.76-1,2.67-1,1.39,0,2.73.67,3.5,1.77.97,1.34,1.46,3.26,1.46,5.93m4.65.49c0-3.59-1.59-6.34-4.57-7.99-1.59-.88-3.18-1.31-4.88-1.31-3.75,0-7.14,2.24-8.66,4.78-.98,1.59-1.49,3.34-1.49,5.18,0,2.96,1.44,5.86,3.67,7.53,1.7,1.24,3.62,1.85,5.86,1.85,1.36,0,2.65-.25,3.9-.74,1.42-.54,2.62-1.39,3.57-2.44,1.67-1.82,2.59-4.16,2.59-6.86m-22.58-3.24v-5.24c0-.39-.15-.49-.54-.49-.77,0-4.83.1-8.94.1-3.19,0-5.83-.05-7.27-.05h-1.91c-.33,0-.43.08-.43.44v4.91c.1.08.28.11.41.11.1,0,.46,0,.56-.06,1.16-2.33,2.24-3.59,3.6-4.29.77-.07,2.29-.1,2.7-.1.02.28.05,1.18.08,2.26.02,1.85.02,2.65.02,7.02,0,3.78-.02,5.47-.08,5.88-.1.72.03,1.26-3.06,1.39-.08.18-.08.38-.08.58,0,.1,0,.31.03.41h1c.95,0,3.19-.1,4.12-.1.74,0,3.13.08,4.7.08h.72c.08-.13.08-.41.08-.54,0-.16-.02-.34-.1-.47-.28,0-1.93.05-2.64-.49-.08-.28-.24-1.03-.24-1.93-.02-2.77-.05-3.82-.05-5.68,0-2.39.03-4.01.03-8.45.36,0,1.18-.02,1.95,0,1.6.44,2.37,1.03,3.06,1.95.43.59.9,1.59,1.36,2.8.16.05.29.05.43.05.11,0,.44-.05.49-.1m-22.14,8.35c0-.36,0-.52-.03-.75-.13-.08-.18-.08-.38-.08-.18,0-.38,0-.57.05-.87,1.98-2.13,3.52-2.82,3.93-.38.24-.97.29-1.93.29h-2.1c-.82,0-1.47-.08-1.7-.13-.39-.08-.8-.69-.98-1.11-.18-.43-.29-.43-.29-1.62v-5.62h.95c.26,0,.87.05,1.56.36.65.29.9.67,1.16,1.08.24.36.39,1.77.44,2.13.13.07.46.1.67.1s.33-.03.51-.13c0-.7-.15-2.57-.15-3.6,0-1.28.18-3.05.25-3.97-.1-.06-.25-.11-.51-.11-.18,0-.51,0-.67.08-.08.36-.36,1.44-.41,1.52-.38.65-1.05,1.13-1.75,1.34-.46.12-1.13.2-1.49.2h-.54v-2.39c0-2.47.05-3.26.07-3.73.03-.3.08-.64.11-.87.23-.03.36-.05,1.54-.05,1.49,0,2.18.02,2.41.02.72.06,1.26.21,1.65.52.98.74,1.72,1.92,2.47,3.18.15.06.41.06.54.06.15,0,.18-.06.39-.15,0-1.57-.11-3.6-.16-4.24-.02-.26-.07-.34-.59-.34-.21,0-1.18-.05-2.21-.05-1.46,0-2.06.03-4.3.03-1.2,0-3.7.02-4.75.02-1.54,0-2.85-.05-3.52-.05h-.87c-.08.1-.12.31-.12.41,0,.13.05.42.12.52.31.1,1.52.08,1.88.28.35.31.69.44.92,1.67.05.54.08,2.03.08,3.21v5.29c0,1.08-.02,2.65-.05,3.29-.05,1-.41,2.21-.56,2.45-.23.18-1.29.33-2.31.38-.08.16-.13.42-.13.57s.05.34.13.47h.85c.82,0,3.86-.08,4.55-.08.64,0,1.88.05,3.36.05.82,0,3.24.15,8.43.15.21,0,.44.02.69-.05.08-.13.08-.18.11-.41.05-.51.05-2.03.05-4.11m-21.73.9c-.08-.23-.29-.62-.88-.62-.05,0-.13.03-.18.03-1.55,2.19-3.24,3.01-5.17,3.01-2.67,0-4.57-1.8-5.19-3.39-.34-.85-.8-2.7-.8-4.68,0-1.87.28-3.39.77-4.5,1.13-2.98,2.77-3.9,4.78-3.9,1.67,0,3.06.95,4.11,2.31.44.59.9,1.75,1.31,3.11.11.02.34.07.57.07.15,0,.51-.12.61-.23-.02-.28-.28-2.26-.28-2.88,0-.77.2-2.03.2-2.52-.16-.15-.67-.26-1-.28-.38.28-.51.61-.87,1.05-1.44-1.03-2.78-1.82-5.7-1.82-2.7,0-4.83.92-6.45,2.54-1.77,1.74-2.75,4.16-2.75,7.24,0,3.29,1.39,5.99,3.62,7.68,1.42,1.02,3.5,1.72,5.99,1.72,3.14,0,5.42-1.18,6.58-2.74.46-.62.51-.78.72-1.21m-20-14.67c0-.1-.03-.28-.08-.36h-.59c-1.28,0-2.11.05-4.42.05-.79,0-1.98-.05-2.26-.05h-.67c-.08.05-.11.33-.11.44,0,.13.03.33.14.44.41.13,1.98.3,2.64.74.47.54.67,1.62.74,2.62.03.38.06.77.06,1.82v5.37c0,.62-.03.82-.06,1.11-.43-.49-1.05-1.41-2.08-2.57l-8.57-9.51c-.08-.1-.23-.23-.39-.33-.21,0-.57-.03-.77-.03-1.65,0-4.63-.07-5.06-.07-.05.1-.1.25-.1.36,0,.05.05.41.07.49.39.1,1.24.23,1.93.97.41.46,1.13,1.1,1.36,1.62.08.19.1.46.1.82,0,1.33-.08,3.21-.08,5v5.22c0,.85-.08,1.52-.15,1.95-.54.57-1.36.98-2.7,1.31-.05.13-.1.33-.1.46,0,.08.02.34.08.36h.49c.51,0,1.69-.08,2.47-.08,1.13,0,1.9.08,2.95.08h1.53c.1-.02.13-.33.13-.43s-.03-.31-.07-.41c-.89-.23-2.2-.44-3.07-1.59-.18-.39-.33-2.29-.33-3.19,0-.82-.03-1.95-.03-3.47,0-2.03.03-3.8.05-4.7.15.18.33.41.46.56l11.86,13.34c.13.13.59.15.72.15s.21,0,.31-.05c.05-.13.23-.54.23-1.15,0-.75-.03-1.52-.03-1.9v-10.71c0-3.21,1.52-4.11,3.29-4.19.08-.13.11-.36.11-.49m-25.4,17.8c0-.13-.03-.41-.08-.51-.39-.03-1.44-.13-1.9-.23-.41-.49-.7-1.05-.87-1.98-.03-1.24-.06-3.78-.06-6.17v-6.32c0-.69.28-1.23.47-1.39.49-.46,1.46-.56,2.29-.67.05-.1.08-.38.08-.49,0-.15-.08-.36-.13-.41h-.75c-1.08,0-3.6.13-4.47.13-.54,0-3.06-.08-4.19-.1h-.57c-.08.1-.13.2-.13.43,0,.11.02.37.05.49,1.26.11,1.82.23,2.01.36.31.23.74.8.85,2.18.02.49.05,1.54.07,3.91.03,1.29.05,3.08.05,4.57,0,.74-.05,2.41-.08,3.31-.05.62-.18,1.21-.36,1.54-.31.26-.62.72-2.49.85-.06.1-.08.44-.08.54,0,.2.06.3.06.43h.44c1.03,0,3.6-.13,4.93-.13.39,0,3.06.08,3.9.08h.85c.07-.13.1-.33.1-.43m-20.6-13.41c0,1.59-1.08,3.42-2.34,3.72-.51.13-1.16.21-2.1.21-.26,0-.65,0-.95-.06l-.03-2.18v-4.73c0-.31.08-.49.15-.57.08-.08.54-.15,1.08-.15,2,0,2.87.17,3.59,1.38.41.7.59,1.49.59,2.37m7.45,13.43c0-.13-.05-.44-.13-.54-.26,0-1.31-.05-1.69-.34-.13-.15-.33-.46-.44-.64-.34-1.18-.72-1.98-1.1-2.95-.54-1.29-1.29-2.5-1.9-3.06-.23-.2-1.03-.54-1.93-.84-.41-.15-.74-.28-1.05-.41.38-.08.57-.11,1.05-.15,1.9-.24,2.34-.57,2.83-.96,1.03-.77,1.6-1.95,1.6-3.34,0-2.08-1.34-4.08-3.21-4.68-.62-.18-1.72-.28-3.08-.28-1.93,0-4.63.18-5.91.18-.39,0-2.62-.05-3.52-.05-.38,0-1.36-.05-1.51-.05-.08.18-.13.38-.13.49,0,.1.02.36.05.46.44.05,1.24.15,1.65.23.61.46.82.82,1.08,1.39.13.82.15,2.93.15,6.55,0,2.62.03,5.65-.1,6.63-.08.64-.31,1.4-1.05,1.71-.33.06-.95.16-1.46.18-.08.13-.13.39-.13.51,0,.08.05.28.1.41.36,0,4.29-.07,5.11-.07,1.64,0,3.03.07,4.5.07.06-.1.1-.28.1-.39,0-.17-.05-.43-.1-.54-.51-.05-1.15-.2-1.44-.26-.64-.3-1.11-.92-1.11-1.82l-.02-5.93c.2-.03.46-.03.67-.03.33,0,.72.06,1.36.41.95.54,1.41.93,2.03,1.88.82,1.28,1.36,3.64,1.62,5.52.08.54.29,1,.77,1.05.2.03,1.57.08,2.54.08h3.67c.1-.11.15-.31.15-.44m-27.89-13.31c0,1.31-.46,2.47-1.31,3.21-.54.44-1.39.69-2.67.69-.54,0-.95-.02-1.1-.05-.21-.03-.34-.05-.34-.19l.03-7.52c.31-.02.74-.13,1.49-.13,1.75,0,2.83.44,3.34,1.52.36.69.56,1.56.56,2.46m4.6.11c0-1.93-1.1-3.73-2.75-4.47-.85-.37-2.34-.59-4.6-.59-1.98,0-5.06.15-6.42.15-.95,0-2.39-.11-3.18-.11-.08.13-.13.31-.13.41s0,.39.08.51c.49.16,1.29.28,1.8.41.43.38.54.72.69,1.46.08.9.13,2.03.13,3.98,0,5.42-.03,8.27-.1,8.89-.1.78-.62,1.57-1.47,1.82-.39.08-.95.21-1.49.26-.02.13-.05.31-.05.54,0,.21.03.24.08.36.82,0,3.24-.11,4.17-.11,2.29,0,4.62.11,5.57.11h.65c.08-.11.08-.29.08-.41,0-.16,0-.36-.05-.46-.77-.1-1.93-.26-2.41-.83-.26-.3-.52-.74-.52-1.51l-.08-5.65c1.54.1,3.19.15,4.09.15,1.18,0,2.18-.2,2.98-.46,1.82-.69,2.95-2.49,2.95-4.47"/>
    <path class="cls-5" d="m191.02,194.85c0-.16-.11-.21-.16-.31-1.05,0-2.44.08-2.98.08-1.31,0-2.9-.11-3.59-.11-.08.16-.1.18-.1.31s.03.23.05.31c.75.15,1.82.34,2.03.7.18.33.24.59.24,1,0,.31-.02.62-.16.95-.23.64-.72,1.64-1.41,3.06-1.19,2.38-1.93,3.87-2.34,4.46-.66-1.12-2.15-4.1-2.51-4.88l-1.44-3.14c-.05-.1-.1-.46-.1-.69,0-.33.05-.57.1-.66.23-.46,1.03-.52,2.11-.65.05-.13.07-.28.07-.38,0-.18-.07-.13-.15-.26h-.46c-1.72,0-1.21.08-4.17.08-1.26,0-2.77-.08-2.98-.08-.1.18-.16.21-.16.39,0,.1.03.18.11.31,1.72.4,2.23.72,2.41,1.05l4.5,8.81c.44.83.69,1.46.82,1.93.18.72.2,1.77.2,3.08,0,1.11-.38,1.7-.82,1.99-.18.1-1.47.28-2.06.33-.1.18-.13.23-.13.36s.06.21.08.31c1.31,0,2.68-.03,3.44-.03.54,0,1.36.03,2.88.06.87.02,1.54.05,2,.05.05-.11.14-.21.14-.34s-.03-.2-.11-.33c-.83-.1-1.98-.26-2.24-.52-.41-.44-.61-.64-.67-1.64l-.21-3.86c-.03-.28.08-.53.1-.61.08-.29.18-.51.28-.72l3.96-7.84c.35-.67,1.13-1.41,1.64-1.72.36-.23,1.16-.39,1.67-.52.06-.13.11-.23.11-.33m-20.76,5.29v-4.99c0-.38-.15-.48-.54-.48-.77,0-4.32.1-8.43.1-3.18,0-5.32-.05-6.76-.05h-1.9c-.33,0-.44.07-.44.43v4.65c.11.08.18.1.31.1.11,0,.21,0,.31-.05,1-2.24,1.52-3.42,3.24-4.29.77-.08,3.47-.1,3.88-.1.02.28.05,1.18.07,2.26.03,1.85.03,2.85.03,7.22,0,3.77-.03,5.73-.08,6.14-.1.72.03,1.26-3.06,1.39-.08.18-.08.23-.08.44,0,.1,0,.2.02.31h1c.95,0,2.21-.1,3.13-.1.75,0,2.16.08,3.72.08h.72c.08-.13.08-.26.08-.38,0-.16-.03-.24-.1-.36-.28,0-1.93.05-2.65-.49-.08-.28-.23-1.02-.23-1.92-.02-2.78-.05-4.09-.05-5.94,0-2.39.03-4.21.03-8.65.36,0,2.26-.03,3.03,0,1.59.43,2.21,1.02,2.9,1.95.62.82.77,1.57,1.16,2.8.16.06.23.06.39.06.1,0,.23-.06.28-.1m-21.35,12.68c0-.13-.03-.26-.08-.36-.38-.03-1.44-.13-1.91-.23-.41-.49-.69-1.05-.87-1.98-.03-1.23-.05-4.03-.05-6.43v-6.52c0-.69.28-1.24.46-1.39.49-.46,1.47-.57,2.28-.67.05-.1.08-.23.08-.33,0-.16-.08-.26-.13-.31h-.74c-1.08,0-2.62.12-3.5.12-.54,0-2.08-.07-3.21-.1h-.57c-.07.1-.12.1-.12.33,0,.11.03.21.05.34,1.26.1,1.83.23,2,.36.31.24.75.8.85,2.19.03.49.05,1.8.08,4.16.02,1.28.05,3.03.05,4.52,0,.75-.05,2.67-.08,3.57-.05.62-.18,1.21-.35,1.54-.31.26-.62.72-2.5.85-.05.1-.07.28-.07.38,0,.21.04.21.04.33h.44c1.03,0,2.62-.13,3.96-.13.39,0,2.08.07,2.93.07h.84c.08-.12.11-.23.11-.33m-12.69-4.72c0-2.06-.92-3.47-2.9-4.52-.54-.31-1.49-.65-2.85-1.03-1.57-.43-2.88-.95-3.73-1.41-.56-.3-1.52-1.15-1.52-2.8s1.67-3,3.62-3c1.54,0,2.78.77,3.52,1.79.64.9.87,1.32,1.59,2.93.08.03.18.06.26.06.23,0,.44-.13.57-.26-.08-.65-.2-1.55-.2-2.32,0-.66.16-1.54.23-2-.21-.31-.44-.36-.77-.36-.36.23-.7.59-1,.93-1.69-1.36-3.08-1.59-4.37-1.59-3.16,0-5.42,2.11-5.42,4.91,0,.95.33,1.88.95,2.83.57.79,1.39,1.41,2.5,1.88.74.3,4.08,1.31,4.54,1.49,2.06.8,2.83,1.49,2.83,3.31,0,.9-.39,1.7-1.13,2.6-.66.82-1.72,1.21-2.85,1.21-1.21,0-3.29-.51-4.32-1.9-.62-.79-1.49-2.47-1.75-3.47q-.18-.05-.36-.05c-.15,0-.34.05-.49.15,0,.34.11,2.03.11,2.54,0,1.26-.23,1.87-.28,2.29.07.26.51.51.83.51.53-.47,1.1-.83,1.28-.83.15,0,.38.08.61.23,1.67,1.08,3.06,1.28,4.3,1.28,3.62,0,6.21-1.82,6.21-5.39m-22.73-8.86c0,1.64-1.31,3.49-2.82,3.83-.62.13-1.52.21-2.68.21-.31,0-1.18,0-1.56-.06l-.03-2.26v-4.86c0-.34.08-.52.18-.59.11-.08,1.16-.16,1.8-.16,2.41,0,3.52.23,4.4,1.49.49.69.72,1.49.72,2.39m5.39,13.61c0-.12-.05-.28-.13-.38-.25,0-1.31-.05-1.69-.34-.13-.15-.33-.46-.44-.64-.33-1.18-.69-2.24-1.08-3.21-.54-1.29-1.29-2.5-1.9-3.06-.23-.2-.95-.54-1.85-.85-.41-.16-.74-.29-1.05-.41.39-.07.56-.1,1.05-.15,1.67-.2,2.24-.56,2.73-.95,1.03-.77,1.69-1.92,1.69-3.32,0-2.08-1.33-4.06-3.21-4.65-.62-.18-1.72-.28-3.08-.28-1.93,0-3.37.17-4.65.17-.38,0-1.65-.05-2.54-.05-.39,0-1.37-.05-1.52-.05-.07.18-.13.24-.13.33,0,.1.02.25.05.36.43.05,1.23.15,1.64.23.62.46.83.83,1.08,1.39.13.82.16,3.13.16,6.76,0,2.62.03,5.91-.1,6.88-.08.64-.31,1.41-1.06,1.72-.33.06-.95.16-1.46.19-.08.12-.13.23-.13.36,0,.08.05.18.1.31.36,0,3.32-.08,4.14-.08,1.65,0,2.06.08,3.52.08.05-.1.11-.18.11-.28,0-.18-.05-.28-.11-.38-.51-.05-1.16-.21-1.44-.26-.64-.31-1.1-.93-1.1-1.83l-.03-6.42c.21-.03.95-.03,1.15-.03.69,0,1.39.06,2.06.36.98.43,1.9,1.13,2.52,2.08.82,1.28,1.36,3.73,1.62,5.6.07.54.28,1,.77,1.05.2.03.52.08,1.49.08h2.67c.11-.1.15-.2.15-.34m-21.55-3.9c0-.36,0-.52-.02-.75-.13-.08-.18-.08-.39-.08-.18,0-.16,0-.34.06-.56,1.87-1.54,3.27-2.65,3.93-.38.23-1.08.28-2.18.28h-2.88c-.9-.03-1.46-.08-1.7-.13-.38-.07-.8-.69-.97-1.1-.19-.44-.29-.59-.29-1.77v-5.86h.82c.82,0,1.49.06,2.18.36.65.28,1.13.69,1.39,1.1.24.36.31,1.78.37,2.13.12.08.2.1.41.1s.23-.02.41-.13c0-.69-.15-2.57-.15-3.59,0-1.28.18-2.86.25-3.78-.1-.05-.15-.1-.41-.1-.18,0-.25,0-.42.07-.07.36-.28,1.44-.33,1.52-.39.64-1.29,1.16-1.98,1.36-.47.13-1.13.21-2.11.21h-.41v-2.52c0-2.47.05-3.47.08-3.93.03-.31.08-.64.11-.87.23-.03.98-.05,2.16-.05,1.49,0,2.59.03,2.83.03.72.05,1.26.2,1.64.51,1.26.97,1.59,1.62,2.29,3.19.15.05.18.05.31.05.15,0,.18-.05.38-.15,0-1.57-.1-3.34-.15-3.99-.03-.26-.08-.33-.59-.33-.21,0-1.18-.05-2.21-.05-1.47,0-2.06.02-4.29.02-1.21,0-3.34.03-4.39.03-1.54,0-1.88-.05-2.55-.05h-.88c-.08.1-.13.2-.13.3,0,.13.05.26.13.37.31.1,1.52.07,1.88.28.35.31.69.39.92,1.62.05.54.08,2.29.08,3.47v5.29c0,1.08-.03,2.86-.05,3.49-.05,1.01-.41,2.26-.57,2.5-.23.18-1.29.33-2.32.38-.08.16-.14.26-.14.41s.06.23.14.36h.85c.83,0,2.89-.08,3.58-.08.64,0,1.52.05,3,.05.83,0,3.24.16,8.43.16.2,0,.43.03.69-.05.08-.13.08-.18.1-.41.05-.51.05-1.78.05-3.86m-19.02-14.02c0-.11-.03-.26-.13-.29h-.87c-.62,0-1.59.05-2.03.05-2.08,0-2.82-.13-3.14-.13h-.46c-.05.13-.13.21-.13.33,0,.1.05.18.05.28.64.08,1.2.21,1.77.39.3.31.64.93.64,1.62,0,.25-.26,1.46-.62,2.34l-4.13,10.17-5.07-12.87c.08-.61.41-1.21.84-1.44.44-.05.97-.21,1.67-.21.05-.1.1-.25.1-.36s-.02-.26-.13-.28h-.65c-.78,0-1.99.1-3.35.1-.59,0-1.75-.05-2.88-.05h-1c-.05.1-.1.15-.1.31s.03.21.08.31c.72.18,1.41.46,2.16.87.49.72,1.54,3.32,2.11,4.68l2.12,5.14c1.77,4.27,2.82,7.12,2.95,7.6.13.08,0,.15.23.15s.21-.04.26-.17l6.63-15.93c.23-.56.59-1.1.92-1.47.41-.46,1.26-.64,2.05-.82.03-.1.11-.21.11-.33m-22.5,17.9c0-.13-.02-.26-.08-.36-.39-.03-1.44-.13-1.9-.23-.41-.49-.69-1.05-.88-1.98-.02-1.23-.05-4.03-.05-6.43v-6.52c0-.69.28-1.24.46-1.39.49-.46,1.46-.57,2.28-.67.05-.1.08-.23.08-.33,0-.16-.08-.26-.13-.31h-.74c-1.08,0-2.62.12-3.5.12-.54,0-2.08-.07-3.21-.1h-.57c-.08.1-.13.1-.13.33,0,.11.03.21.05.34,1.26.1,1.82.23,2,.36.31.24.74.8.85,2.19.02.49.05,1.8.08,4.16.03,1.28.05,3.03.05,4.52,0,.75-.05,2.67-.08,3.57-.05.62-.18,1.21-.36,1.54-.31.26-.61.72-2.49.85-.05.1-.08.28-.08.38,0,.21.06.21.06.33h.43c1.03,0,2.63-.13,3.96-.13.39,0,2.08.07,2.93.07h.85c.08-.12.1-.23.1-.33m-11.61-17.96c0-.1-.03-.18-.08-.25h-.59c-1.29,0-1.85.05-4.16.05-.8,0-1.98-.05-2.26-.05h-.67c-.08.05-.1.23-.1.33,0,.13.02.18.13.28.41.13,1.98.31,2.65.75.46.54.67,1.62.74,2.62.03.38.05.77.05,1.82v7.63c0,.62-.02.82-.05,1.11-.44-.49-1.18-1.44-2.18-2.62l-9.81-11.45c-.08-.11-.23-.23-.39-.34-.2,0-.46-.02-.66-.02-1.64,0-3.08-.08-3.52-.08-.05.1-.07.15-.07.26,0,.06.03.26.05.33.39.11,1.52.24,1.98.72.41.46,1.02,1,1.26,1.52.07.18.11.46.11.82,0,1.34-.08,3.77-.08,5.58v5.47c0,.85-.08,1.51-.16,1.95-.54.57-1.36.97-2.7,1.31-.05.13-.1.18-.1.31,0,.08.02.23.08.25h.49c.51,0,1.7-.07,2.47-.07,1.12,0,1.64.07,2.69.07h1.55c.1-.02.12-.23.12-.33s-.02-.15-.08-.26c-.9-.23-2.2-.44-3.08-1.59-.18-.39-.34-2.34-.34-3.24,0-.82-.02-2.16-.02-3.67,0-2.03.02-4.83.06-5.73.15.18.39.46.56.67l12.18,14.26c.13.13.18.15.31.15s.05,0,.15-.05c.05-.13.13-.54.13-1.15,0-.75-.03-1.52-.03-1.9v-10.92c0-3.21,1.52-4.12,3.29-4.19.08-.13.1-.21.1-.34m-23.79.13c0-.1-.05-.26-.13-.33h-.74c-.8,0-1.88.05-2.8.05-1.02,0-2.18-.05-2.93-.05h-.92c-.08.15-.11.2-.11.33,0,.11.03.21.08.34.11,0,1.98.02,2.31.49.28.39.9,1.33,1,1.9.05.26.21,1.31.21,2.82,0,2.18,0,3.65-.02,4.42-.05,1.45-.21,2.57-.47,3.42-.72,2.24-2.39,3.34-5.03,3.34-1.13,0-2.11-.23-3-.64-1.67-.82-2.47-2.39-2.49-3.24l-.13-7.7-.02-3.13c0-.6.74-1.14,1-1.44.21-.1,1.34-.21,1.98-.26.08-.16.13-.23.13-.36s-.08-.26-.18-.33l-.97.02c-.96.03-2.21.05-3.01.05-1.24,0-2.19-.02-2.95-.02H.13c-.11.07-.13.23-.13.36s.02.23.1.31c.82.1,1.36.18,1.72.25.44.26.75.69.9,1.13.03.34.08,1.16.08,2.78v6.17c0,1.59.08,2.72.26,3.44.33,1.34,1.05,2.39,2.24,3.16,1.26.83,2.83,1.24,4.7,1.24,1.72,0,3.18-.36,4.42-1.05,1.28-.69,2.08-1.82,2.54-3.42.26-.95.41-1.98.41-3.06v-4.93c0-.92.05-2.08.05-2.55.02-1.38.38-2.21.77-2.83.41-.13.77-.2,2.13-.36.05-.1.1-.18.1-.31"/>
  </g>
</svg>